<?xml version="1.0" encoding="UTF-8" standalone="no"?>
<!-- Created with Inkscape (http://www.inkscape.org/) -->

<svg
   version="1.1"
   id="svg1"
   width="498.66666"
   height="394.66666"
   viewBox="0 0 498.66666 394.66666"
   sodipodi:docname="Demo_Curves.pdf"
   xmlns:inkscape="http://www.inkscape.org/namespaces/inkscape"
   xmlns:sodipodi="http://sodipodi.sourceforge.net/DTD/sodipodi-0.dtd"
   xmlns="http://www.w3.org/2000/svg"
   xmlns:svg="http://www.w3.org/2000/svg">
  <defs
     id="defs1" />
  <sodipodi:namedview
     id="namedview1"
     pagecolor="#ffffff"
     bordercolor="#000000"
     borderopacity="0.25"
     inkscape:showpageshadow="2"
     inkscape:pageopacity="0.0"
     inkscape:pagecheckerboard="0"
     inkscape:deskcolor="#d1d1d1">
    <inkscape:page
       x="0"
       y="0"
       inkscape:label="1"
       id="page1"
       width="498.66666"
       height="394.66666"
       margin="0"
       bleed="0" />
  </sodipodi:namedview>
  <g
     id="g1"
     inkscape:groupmode="layer"
     inkscape:label="1">
    <path
       id="path1"
       d="M 0,0 H 840 V 630 H 0 Z"
       style="fill:#ffffff;fill-opacity:1;fill-rule:nonzero;stroke:none"
       transform="matrix(0.66666667,0,0,0.66666667,-14.481557,-22.979167)" />
    <path
       id="path2"
       d="M 109,518 H 760 V 47 H 109 Z"
       style="fill:#ffffff;fill-opacity:1;fill-rule:nonzero;stroke:none"
       transform="matrix(0.66666667,0,0,0.66666667,-14.481557,-22.979167)" />
    <path
       id="path3"
       d="M 109,518 H 760"
       style="fill:none;stroke:#262626;stroke-width:3;stroke-linecap:square;stroke-linejoin:round;stroke-miterlimit:10;stroke-dasharray:none;stroke-opacity:1"
       transform="matrix(0.66666667,0,0,0.66666667,-14.481557,-22.979167)" />
    <path
       id="path4"
       d="M 109,47 H 760"
       style="fill:none;stroke:#262626;stroke-width:3;stroke-linecap:square;stroke-linejoin:round;stroke-miterlimit:10;stroke-dasharray:none;stroke-opacity:1"
       transform="matrix(0.66666667,0,0,0.66666667,-14.481557,-22.979167)" />
    <path
       id="path5"
       d="m 109,518 v -6.50998"
       style="fill:none;stroke:#262626;stroke-width:3;stroke-linecap:square;stroke-linejoin:round;stroke-miterlimit:10;stroke-dasharray:none;stroke-opacity:1"
       transform="matrix(0.66666667,0,0,0.66666667,-14.481557,-22.979167)" />
    <path
       id="path6"
       d="m 271.75,518 v -6.50998"
       style="fill:none;stroke:#262626;stroke-width:3;stroke-linecap:square;stroke-linejoin:round;stroke-miterlimit:10;stroke-dasharray:none;stroke-opacity:1"
       transform="matrix(0.66666667,0,0,0.66666667,-14.481557,-22.979167)" />
    <path
       id="path7"
       d="m 434.5,518 v -6.50998"
       style="fill:none;stroke:#262626;stroke-width:3;stroke-linecap:square;stroke-linejoin:round;stroke-miterlimit:10;stroke-dasharray:none;stroke-opacity:1"
       transform="matrix(0.66666667,0,0,0.66666667,-14.481557,-22.979167)" />
    <path
       id="path8"
       d="m 597.25,518 v -6.50998"
       style="fill:none;stroke:#262626;stroke-width:3;stroke-linecap:square;stroke-linejoin:round;stroke-miterlimit:10;stroke-dasharray:none;stroke-opacity:1"
       transform="matrix(0.66666667,0,0,0.66666667,-14.481557,-22.979167)" />
    <path
       id="path9"
       d="m 760,518 v -6.50998"
       style="fill:none;stroke:#262626;stroke-width:3;stroke-linecap:square;stroke-linejoin:round;stroke-miterlimit:10;stroke-dasharray:none;stroke-opacity:1"
       transform="matrix(0.66666667,0,0,0.66666667,-14.481557,-22.979167)" />
    <path
       id="path10"
       d="m 109,47 v 6.509995"
       style="fill:none;stroke:#262626;stroke-width:3;stroke-linecap:square;stroke-linejoin:round;stroke-miterlimit:10;stroke-dasharray:none;stroke-opacity:1"
       transform="matrix(0.66666667,0,0,0.66666667,-14.481557,-22.979167)" />
    <path
       id="path11"
       d="m 271.75,47 v 6.509995"
       style="fill:none;stroke:#262626;stroke-width:3;stroke-linecap:square;stroke-linejoin:round;stroke-miterlimit:10;stroke-dasharray:none;stroke-opacity:1"
       transform="matrix(0.66666667,0,0,0.66666667,-14.481557,-22.979167)" />
    <path
       id="path12"
       d="m 434.5,47 v 6.509995"
       style="fill:none;stroke:#262626;stroke-width:3;stroke-linecap:square;stroke-linejoin:round;stroke-miterlimit:10;stroke-dasharray:none;stroke-opacity:1"
       transform="matrix(0.66666667,0,0,0.66666667,-14.481557,-22.979167)" />
    <path
       id="path13"
       d="m 597.25,47 v 6.509995"
       style="fill:none;stroke:#262626;stroke-width:3;stroke-linecap:square;stroke-linejoin:round;stroke-miterlimit:10;stroke-dasharray:none;stroke-opacity:1"
       transform="matrix(0.66666667,0,0,0.66666667,-14.481557,-22.979167)" />
    <path
       id="path14"
       d="m 760,47 v 6.509995"
       style="fill:none;stroke:#262626;stroke-width:3;stroke-linecap:square;stroke-linejoin:round;stroke-miterlimit:10;stroke-dasharray:none;stroke-opacity:1"
       transform="matrix(0.66666667,0,0,0.66666667,-14.481557,-22.979167)" />
    <text
       id="text14"
       xml:space="preserve"
       transform="matrix(0.66666667,0,0,0.66666667,51.518443,355.02083)"><tspan
         style="font-variant:normal;font-weight:normal;font-size:40px;font-family:'Times New Roman';writing-mode:lr-tb;fill:#262626;fill-opacity:1;fill-rule:nonzero;stroke:none"
         x="0"
         y="0"
         id="tspan14">0</tspan></text>
    <text
       id="text15"
       xml:space="preserve"
       transform="matrix(0.66666667,0,0,0.66666667,160.01844,355.02083)"><tspan
         style="font-variant:normal;font-weight:normal;font-size:40px;font-family:'Times New Roman';writing-mode:lr-tb;fill:#262626;fill-opacity:1;fill-rule:nonzero;stroke:none"
         x="0"
         y="0"
         id="tspan15">2</tspan></text>
    <text
       id="text16"
       xml:space="preserve"
       transform="matrix(0.66666667,0,0,0.66666667,268.51844,355.02083)"><tspan
         style="font-variant:normal;font-weight:normal;font-size:40px;font-family:'Times New Roman';writing-mode:lr-tb;fill:#262626;fill-opacity:1;fill-rule:nonzero;stroke:none"
         x="0"
         y="0"
         id="tspan16">4</tspan></text>
    <text
       id="text17"
       xml:space="preserve"
       transform="matrix(0.66666667,0,0,0.66666667,377.01844,355.02083)"><tspan
         style="font-variant:normal;font-weight:normal;font-size:40px;font-family:'Times New Roman';writing-mode:lr-tb;fill:#262626;fill-opacity:1;fill-rule:nonzero;stroke:none"
         x="0"
         y="0"
         id="tspan17">6</tspan></text>
    <text
       id="text18"
       xml:space="preserve"
       transform="matrix(0.66666667,0,0,0.66666667,485.51844,355.02083)"><tspan
         style="font-variant:normal;font-weight:normal;font-size:40px;font-family:'Times New Roman';writing-mode:lr-tb;fill:#262626;fill-opacity:1;fill-rule:nonzero;stroke:none"
         x="0"
         y="0"
         id="tspan18">8</tspan></text>
    <path
       id="path18"
       d="m 3.4469448,-1.26532 c 0.515625,0.41015629 1.2421875,0.60937504 2.1796875,0.60937504 0.9199218,0 1.734375,-0.43359374 2.4375,-1.31250004 0.703125,-0.890625 1.1777343,-1.8574218 1.4296875,-2.90625 l 1.9921872,-7.804687 c 0.310547,-1.40625 0.46875,-2.367188 0.46875,-2.882813 0,-0.732422 -0.205078,-1.371094 -0.609375,-1.921875 -0.410156,-0.544922 -0.972656,-0.820312 -1.6874997,-0.820312 -0.9375,0 -1.8222657,0.292968 -2.6484375,0.867187 -0.8144532,0.580078 -1.5,1.324219 -2.0625,2.226563 -0.5507813,0.890625 -0.9375,1.798828 -1.171875,2.71875 -0.046875,0.1875 -0.1582032,0.28125 -0.328125,0.28125 H 2.9078823 c -0.234375,0 -0.3515625,-0.140625 -0.3515625,-0.421875 v -0.117188 c 0.28125,-1.089844 0.7617187,-2.15625 1.453125,-3.1875 0.6855468,-1.042969 1.5292968,-1.886719 2.53125,-2.53125 0.9960937,-0.638672 2.0625,-0.960937 3.1875,-0.960937 1.0781252,0 2.0449222,0.292968 2.9062502,0.867187 0.873047,0.5625 1.488281,1.335938 1.851562,2.320313 0.498047,-0.902344 1.136719,-1.664063 1.921875,-2.273438 0.779297,-0.609375 1.628907,-0.914062 2.554688,-0.914062 0.638672,0 1.289062,0.111328 1.945312,0.328125 0.65625,0.222656 1.183594,0.5625 1.59375,1.03125 0.421875,0.457031 0.632813,1.02539 0.632813,1.710937 0,0.738281 -0.246094,1.376953 -0.726563,1.921875 -0.46875,0.533203 -1.078125,0.796875 -1.828125,0.796875 -0.46875,0 -0.867187,-0.146484 -1.195312,-0.445312 -0.316406,-0.292969 -0.46875,-0.679688 -0.46875,-1.148438 0,-0.609375 0.210937,-1.148437 0.632812,-1.617187 0.433594,-0.46875 0.94336,-0.738282 1.523438,-0.820313 -0.533203,-0.421875 -1.259766,-0.632812 -2.179688,-0.632812 -0.955078,0 -1.78125,0.439453 -2.484375,1.3125 -0.691406,0.878906 -1.171875,1.851562 -1.453125,2.929687 l -1.945312,7.7578125 c -0.316406,1.1894532 -0.46875,2.15625 -0.46875,2.90625 0,0.75 0.210937,1.4003907 0.632812,1.9453125 0.421875,0.53320317 0.984375,0.79687504 1.6875,0.79687504 1.371094,0 2.601563,-0.59765624 3.679688,-1.80468754 1.089844,-1.21875 1.810547,-2.5546875 2.15625,-4.0078125 0.04687,-0.1699218 0.152344,-0.2578125 0.328125,-0.2578125 h 0.539062 c 0.123047,0 0.216797,0.041016 0.28125,0.1171875 0.07617,0.082031 0.117188,0.1757813 0.117188,0.28125 0,0.017578 -0.01758,0.058594 -0.04687,0.1171875 -0.421875,1.7519532 -1.300781,3.3046875 -2.625,4.6640625 -1.330078,1.35937504 -2.830078,2.03906254 -4.5,2.03906254 -1.078125,0 -2.056641,-0.29296875 -2.929688,-0.8671875 C 10.999679,-0.94891371 10.390304,-1.73407 10.032882,-2.718445 9.575851,-1.8571168 8.9430385,-1.1071168 8.1344448,-0.46844496 7.3199916,0.17022692 6.4528041,0.49249254 5.5328823,0.49249254 c -0.6269532,0 -1.2773438,-0.11132812 -1.9453125,-0.328125 C 2.9313198,-0.05242933 2.3922573,-0.38641371 1.9703823,-0.84344496 1.560226,-1.312195 1.3610073,-1.8981325 1.3610073,-2.6012575 c 0,-0.6855468 0.234375,-1.3125 0.703125,-1.875 0.4804687,-0.5625 1.0839843,-0.84375 1.8046875,-0.84375 0.4804687,0 0.890625,0.1523438 1.21875,0.4453125 0.328125,0.28125 0.4921875,0.6679688 0.4921875,1.1484375 0,0.609375 -0.2050782,1.1484375 -0.609375,1.6171875 -0.4101563,0.4570313 -0.9140625,0.7382813 -1.5234375,0.84375 z m 0,0"
       style="fill:#262626;fill-opacity:1;fill-rule:nonzero;stroke:none"
       aria-label="x"
       transform="matrix(0.66666667,0,0,0.66666667,241.62001,386.46073)" />
    <path
       id="path19"
       d="M 13.642874,10.92218 C 12.002249,9.6213988 10.584281,8.1389769 9.4006869,6.469055 8.2288119,4.8108519 7.2678744,3.0354613 6.5178744,1.1487425 c -0.75,-1.88671871 -1.3125,-3.8671875 -1.6875,-5.9296875 -0.375,-2.0625 -0.5625,-4.1308593 -0.5625,-6.210937 0,-2.109375 0.1875,-4.195313 0.5625,-6.257813 0.375,-2.0625 0.9433594,-4.042969 1.7109375,-5.953125 0.7617187,-1.904297 1.7402344,-3.685547 2.9296875,-5.34375 1.1835936,-1.652344 2.5781246,-3.105469 4.1718746,-4.359375 0,-0.05859 0.07031,-0.09375 0.210938,-0.09375 h 0.421875 c 0.07617,0 0.146484,0.04102 0.210937,0.117188 0.07617,0.08203 0.117188,0.175781 0.117188,0.28125 0,0.128906 -0.02344,0.222656 -0.07031,0.28125 -1.441406,1.394531 -2.636718,2.894531 -3.585937,4.5 -0.9550782,1.611328 -1.7226564,3.322265 -2.2968751,5.132812 -0.5800781,1.816406 -1.0019531,3.691406 -1.265625,5.625 -0.2519531,1.939453 -0.375,3.960938 -0.375,6.070313 0,9.3164058 2.4902344,16.3886714 7.4765621,21.234375 0.07617,0.09375 0.117188,0.216796 0.117188,0.375 0,0.05859 -0.04102,0.140625 -0.117188,0.234375 -0.08203,0.09375 -0.152343,0.140625 -0.210937,0.140625 h -0.421875 c -0.140625,0 -0.210938,-0.02344 -0.210938,-0.07031 z m 0,0"
       style="fill:#262626;fill-opacity:1;fill-rule:nonzero;stroke:none"
       aria-label="("
       transform="matrix(0.66666667,0,0,0.66666667,268.16256,386.46073)" />
    <path
       id="path20"
       d="m 4.4535854,-0.74969496 c 0,-0.15234375 0.052734,-0.38671874 0.1640625,-0.70312504 0.8085937,-1.6992187 1.5703125,-3.375 2.2734375,-5.015625 0.7148437,-1.640625 1.359375,-3.234375 1.921875,-4.78125 0.5625,-1.558594 1.0839844,-3.222656 1.5703126,-4.992187 H 7.5707729 c -1.078125,0 -2.0859375,0.339843 -3.0234375,1.007812 -0.9257813,0.673828 -1.6992188,1.523438 -2.3203125,2.554688 -0.046875,0.128906 -0.1347656,0.1875 -0.2578125,0.1875 h -0.515625 c -0.2695313,0 -0.3984375,-0.146485 -0.3984375,-0.445313 0,-0.04687 0.029297,-0.128906 0.09375,-0.257812 0.9492187,-1.623047 1.9746094,-2.988282 3.0703125,-4.101563 1.0898437,-1.107422 2.3261719,-1.664062 3.703125,-1.664062 H 23.883273 c 0.292969,0 0.550781,0.105468 0.773437,0.304687 0.216797,0.1875 0.328125,0.457031 0.328125,0.796875 0,0.439453 -0.158203,0.820313 -0.46875,1.148438 -0.316406,0.316406 -0.679687,0.46875 -1.101562,0.46875 H 17.81296 c -0.46875,2.314453 -0.726562,4.564453 -0.773437,6.7499995 0,2.8125 0.492187,5.3613282 1.476562,7.640625 0.09375,0.1757813 0.140625,0.3515625 0.140625,0.5390625 0,0.31640629 -0.09375,0.60937504 -0.28125,0.89062504 -0.1875,0.26953125 -0.433593,0.48046875 -0.726562,0.65625 -0.298828,0.16992188 -0.609375,0.2578125 -0.9375,0.2578125 -0.767578,0 -1.300781,-0.62109375 -1.59375,-1.87500004 -0.28125,-1.265625 -0.421875,-2.4902343 -0.421875,-3.6796875 0,-1.6875 0.140625,-3.3046875 0.421875,-4.8515625 0.292969,-1.5468745 0.755859,-3.6562495 1.382812,-6.3281245 h -4.804687 c -2.3144532,9.3925777 -3.7031251,14.5722652 -4.1718751,15.53906204 -0.421875,0.796875 -1.0019531,1.1953125 -1.734375,1.1953125 -0.3457031,0 -0.65625,-0.1171875 -0.9375,-0.3515625 -0.2695313,-0.234375 -0.3984375,-0.52734375 -0.3984375,-0.890625 z m 0,0"
       style="fill:#262626;fill-opacity:1;fill-rule:nonzero;stroke:none"
       aria-label=":"
       transform="matrix(0.66666667,0,0,0.66666667,279.57001,386.46073)" />
    <path
       id="path21"
       d="m 2.8601646,10.992493 c -0.2695312,0 -0.3984375,-0.128907 -0.3984375,-0.375 0,-0.128907 0.029297,-0.222657 0.09375,-0.28125 5.015625,-4.9101567 7.5234379,-12.0117192 7.5234379,-21.328125 0,-9.328125 -2.478516,-16.41211 -7.4296879,-21.257813 -0.1289062,-0.05859 -0.1875,-0.175781 -0.1875,-0.351562 0,-0.105469 0.035156,-0.199219 0.1171875,-0.28125 0.076172,-0.07617 0.1699219,-0.117188 0.28125,-0.117188 h 0.3984375 c 0.09375,0 0.1640625,0.03516 0.2109375,0.09375 2.109375,1.658203 3.8671875,3.679688 5.2734375,6.070313 1.4062499,2.378906 2.4257809,4.910156 3.0703129,7.59375 0.65625,2.689453 0.984375,5.4375 0.984375,8.25 0,2.0800777 -0.181641,4.1249995 -0.539063,6.1406245 C 11.912899,-2.8473512 11.356258,-0.87274183 10.59454,1.07843 9.8269615,3.0296019 8.8601646,4.8342894 7.6882896,6.4924925 6.5164146,8.1448363 5.1101646,9.6213988 3.4695396,10.92218 3.4226646,10.96905 3.3523521,10.99249 3.2586021,10.99249 Z m 0,0"
       style="fill:#262626;fill-opacity:1;fill-rule:nonzero;stroke:none"
       aria-label=")"
       transform="matrix(0.66666667,0,0,0.66666667,297.34322,386.46073)" />
    <path
       id="path22"
       d="M 109,518 V 47"
       style="fill:none;stroke:#262626;stroke-width:3;stroke-linecap:square;stroke-linejoin:round;stroke-miterlimit:10;stroke-dasharray:none;stroke-opacity:1"
       transform="matrix(0.66666667,0,0,0.66666667,-14.481557,-22.979167)" />
    <path
       id="path23"
       d="M 760,518 V 47"
       style="fill:none;stroke:#262626;stroke-width:3;stroke-linecap:square;stroke-linejoin:round;stroke-miterlimit:10;stroke-dasharray:none;stroke-opacity:1"
       transform="matrix(0.66666667,0,0,0.66666667,-14.481557,-22.979167)" />
    <path
       id="path24"
       d="m 109,518 h 6.51"
       style="fill:none;stroke:#262626;stroke-width:3;stroke-linecap:square;stroke-linejoin:round;stroke-miterlimit:10;stroke-dasharray:none;stroke-opacity:1"
       transform="matrix(0.66666667,0,0,0.66666667,-14.481557,-22.979167)" />
    <path
       id="path25"
       d="m 109,439.5 h 6.51"
       style="fill:none;stroke:#262626;stroke-width:3;stroke-linecap:square;stroke-linejoin:round;stroke-miterlimit:10;stroke-dasharray:none;stroke-opacity:1"
       transform="matrix(0.66666667,0,0,0.66666667,-14.481557,-22.979167)" />
    <path
       id="path26"
       d="m 109,361 h 6.51"
       style="fill:none;stroke:#262626;stroke-width:3;stroke-linecap:square;stroke-linejoin:round;stroke-miterlimit:10;stroke-dasharray:none;stroke-opacity:1"
       transform="matrix(0.66666667,0,0,0.66666667,-14.481557,-22.979167)" />
    <path
       id="path27"
       d="m 109,282.5 h 6.51"
       style="fill:none;stroke:#262626;stroke-width:3;stroke-linecap:square;stroke-linejoin:round;stroke-miterlimit:10;stroke-dasharray:none;stroke-opacity:1"
       transform="matrix(0.66666667,0,0,0.66666667,-14.481557,-22.979167)" />
    <path
       id="path28"
       d="m 109,204 h 6.51"
       style="fill:none;stroke:#262626;stroke-width:3;stroke-linecap:square;stroke-linejoin:round;stroke-miterlimit:10;stroke-dasharray:none;stroke-opacity:1"
       transform="matrix(0.66666667,0,0,0.66666667,-14.481557,-22.979167)" />
    <path
       id="path29"
       d="m 109,125.5 h 6.51"
       style="fill:none;stroke:#262626;stroke-width:3;stroke-linecap:square;stroke-linejoin:round;stroke-miterlimit:10;stroke-dasharray:none;stroke-opacity:1"
       transform="matrix(0.66666667,0,0,0.66666667,-14.481557,-22.979167)" />
    <path
       id="path30"
       d="m 109,47 h 6.51"
       style="fill:none;stroke:#262626;stroke-width:3;stroke-linecap:square;stroke-linejoin:round;stroke-miterlimit:10;stroke-dasharray:none;stroke-opacity:1"
       transform="matrix(0.66666667,0,0,0.66666667,-14.481557,-22.979167)" />
    <path
       id="path31"
       d="m 760,518 h -6.51001"
       style="fill:none;stroke:#262626;stroke-width:3;stroke-linecap:square;stroke-linejoin:round;stroke-miterlimit:10;stroke-dasharray:none;stroke-opacity:1"
       transform="matrix(0.66666667,0,0,0.66666667,-14.481557,-22.979167)" />
    <path
       id="path32"
       d="m 760,439.5 h -6.51001"
       style="fill:none;stroke:#262626;stroke-width:3;stroke-linecap:square;stroke-linejoin:round;stroke-miterlimit:10;stroke-dasharray:none;stroke-opacity:1"
       transform="matrix(0.66666667,0,0,0.66666667,-14.481557,-22.979167)" />
    <path
       id="path33"
       d="m 760,361 h -6.51001"
       style="fill:none;stroke:#262626;stroke-width:3;stroke-linecap:square;stroke-linejoin:round;stroke-miterlimit:10;stroke-dasharray:none;stroke-opacity:1"
       transform="matrix(0.66666667,0,0,0.66666667,-14.481557,-22.979167)" />
    <path
       id="path34"
       d="m 760,282.5 h -6.51001"
       style="fill:none;stroke:#262626;stroke-width:3;stroke-linecap:square;stroke-linejoin:round;stroke-miterlimit:10;stroke-dasharray:none;stroke-opacity:1"
       transform="matrix(0.66666667,0,0,0.66666667,-14.481557,-22.979167)" />
    <path
       id="path35"
       d="m 760,204 h -6.51001"
       style="fill:none;stroke:#262626;stroke-width:3;stroke-linecap:square;stroke-linejoin:round;stroke-miterlimit:10;stroke-dasharray:none;stroke-opacity:1"
       transform="matrix(0.66666667,0,0,0.66666667,-14.481557,-22.979167)" />
    <path
       id="path36"
       d="m 760,125.5 h -6.51001"
       style="fill:none;stroke:#262626;stroke-width:3;stroke-linecap:square;stroke-linejoin:round;stroke-miterlimit:10;stroke-dasharray:none;stroke-opacity:1"
       transform="matrix(0.66666667,0,0,0.66666667,-14.481557,-22.979167)" />
    <path
       id="path37"
       d="m 760,47 h -6.51001"
       style="fill:none;stroke:#262626;stroke-width:3;stroke-linecap:square;stroke-linejoin:round;stroke-miterlimit:10;stroke-dasharray:none;stroke-opacity:1"
       transform="matrix(0.66666667,0,0,0.66666667,-14.481557,-22.979167)" />
    <text
       id="text37"
       xml:space="preserve"
       transform="matrix(0.66666667,0,0,0.66666667,27.518443,332.02083)"><tspan
         style="font-variant:normal;font-weight:normal;font-size:40px;font-family:'Times New Roman';writing-mode:lr-tb;fill:#262626;fill-opacity:1;fill-rule:nonzero;stroke:none"
         x="0 13.32"
         y="0"
         sodipodi:role="line"
         id="tspan37">-3</tspan></text>
    <text
       id="text38"
       xml:space="preserve"
       transform="matrix(0.66666667,0,0,0.66666667,27.518443,279.6875)"><tspan
         style="font-variant:normal;font-weight:normal;font-size:40px;font-family:'Times New Roman';writing-mode:lr-tb;fill:#262626;fill-opacity:1;fill-rule:nonzero;stroke:none"
         x="0 13.32"
         y="0"
         sodipodi:role="line"
         id="tspan38">-2</tspan></text>
    <text
       id="text39"
       xml:space="preserve"
       transform="matrix(0.66666667,0,0,0.66666667,27.518443,227.35417)"><tspan
         style="font-variant:normal;font-weight:normal;font-size:40px;font-family:'Times New Roman';writing-mode:lr-tb;fill:#262626;fill-opacity:1;fill-rule:nonzero;stroke:none"
         x="0 13.32"
         y="0"
         sodipodi:role="line"
         id="tspan39">-1</tspan></text>
    <text
       id="text40"
       xml:space="preserve"
       transform="matrix(0.66666667,0,0,0.66666667,36.851776,175.02083)"><tspan
         style="font-variant:normal;font-weight:normal;font-size:40px;font-family:'Times New Roman';writing-mode:lr-tb;fill:#262626;fill-opacity:1;fill-rule:nonzero;stroke:none"
         x="0"
         y="0"
         id="tspan40">0</tspan></text>
    <text
       id="text41"
       xml:space="preserve"
       transform="matrix(0.66666667,0,0,0.66666667,36.851776,122.6875)"><tspan
         style="font-variant:normal;font-weight:normal;font-size:40px;font-family:'Times New Roman';writing-mode:lr-tb;fill:#262626;fill-opacity:1;fill-rule:nonzero;stroke:none"
         x="0"
         y="0"
         id="tspan41">1</tspan></text>
    <text
       id="text42"
       xml:space="preserve"
       transform="matrix(0.66666667,0,0,0.66666667,36.851776,70.354167)"><tspan
         style="font-variant:normal;font-weight:normal;font-size:40px;font-family:'Times New Roman';writing-mode:lr-tb;fill:#262626;fill-opacity:1;fill-rule:nonzero;stroke:none"
         x="0"
         y="0"
         id="tspan42">2</tspan></text>
    <text
       id="text43"
       xml:space="preserve"
       transform="matrix(0.66666667,0,0,0.66666667,36.851776,18.020833)"><tspan
         style="font-variant:normal;font-weight:normal;font-size:40px;font-family:'Times New Roman';writing-mode:lr-tb;fill:#262626;fill-opacity:1;fill-rule:nonzero;stroke:none"
         x="0"
         y="0"
         id="tspan43">3</tspan></text>
    <path
       id="path43"
       d="m 3.704206,6.3027347 c 0.609375,1.0429687 1.6757812,1.5703125 3.2109375,1.5703126 1.3886718,1e-7 2.5898437,-0.486328 3.6093755,-1.4531248 1.013671,-0.9726562 1.833984,-2.1503906 2.460937,-3.5390624 0.621094,-1.3769531 1.107422,-2.78906249 1.453125,-4.2421875 -1.3125,1.2363281 -2.730468,1.85156241 -4.242187,1.85156235 C 9.0362375,0.4902349 8.0518625,0.29101611 7.2432688,-0.09570268 6.4288157,-0.49999959 5.7960032,-1.1035152 5.3448314,-1.9003903 4.8878002,-2.6972653 4.665144,-3.6582028 4.665144,-4.7832028 c 0,-0.9667969 0.123047,-1.9511719 0.3750001,-2.953125 0.2636719,-1.0136718 0.6210939,-2.1386718 1.0781252,-3.3750002 0.46875,-1.248047 0.8730469,-2.326172 1.2187501,-3.234375 0.3867188,-1.078125 0.5859376,-1.957031 0.5859376,-2.648437 10e-8,-0.873047 -0.3222655,-1.3125 -0.9609374,-1.3125 -1.1601563,0 -2.1210938,0.603515 -2.8828126,1.804687 -0.75,1.189453 -1.3007814,2.525391 -1.6406252,4.007813 -0.064453,0.1875 -0.1875,0.28125 -0.375,0.28125 h -0.515625 c -0.2519531,0 -0.375,-0.140625 -0.375,-0.421875 v -0.117188 c 0.4804689,-1.746094 1.2070314,-3.292969 2.1796877,-4.640625 0.966797,-1.359375 2.2031251,-2.039062 3.7031251,-2.039062 1.0429688,0 1.9277344,0.345703 2.6484375,1.03125 0.7148439,0.691406 1.0781249,1.558594 1.0781249,2.601562 0,0.550782 -0.117188,1.125 -0.351563,1.734375 -0.140625,0.363282 -0.4394528,1.142579 -0.8906247,2.34375 -0.4570313,1.207032 -0.8085938,2.197266 -1.0546876,2.9765629 -0.2519532,0.7851562 -0.4570313,1.5585937 -0.6093751,2.3203124 -0.1582032,0.7675782 -0.2343751,1.5234375 -0.2343751,2.2734375 -10e-8,0.9726563 0.1992187,1.7988282 0.6093749,2.4843751 0.4218749,0.67382811 1.0839843,1.00781251 1.9921876,1.00781255 1.828125,8e-8 3.457031,-1.10742175 4.898437,-3.32812475 L 18.469832,-17.55664 c 0.105469,-0.386718 0.333984,-0.714843 0.679688,-0.984375 0.357421,-0.28125 0.75,-0.421875 1.171875,-0.421875 0.357421,0 0.667968,0.117188 0.9375,0.351563 0.263671,0.222656 0.398437,0.515625 0.398437,0.890625 0,0.175781 -0.01758,0.292969 -0.04687,0.351562 L 17.251081,0.11523525 C 16.858503,1.626954 16.149519,3.0742196 15.118269,4.4511727 14.087019,5.8222664 12.844831,6.9238288 11.391706,7.75586 9.9385809,8.5996099 8.4210028,9.0214849 6.8448309,9.0214848 c -0.75,0 -1.5,-0.1523438 -2.25,-0.4453126 C 3.8448309,8.2773441 3.2413153,7.8320315 2.7901435,7.2402346 2.3331123,6.6601565 2.110456,5.980469 2.1104561,5.2011721 c 0,-0.8144531 0.234375,-1.5175781 0.7031251,-2.109375 0.46875,-0.5800781 1.1015625,-0.8671874 1.8984375,-0.8671874 0.46875,0 0.8554687,0.1464844 1.171875,0.4453126 0.328125,0.2929687 0.4921875,0.6796875 0.4921874,1.1484375 0,0.6679687 -0.2519531,1.2539062 -0.75,1.7578125 -0.5039063,0.4980468 -1.0898438,0.7499999 -1.7578126,0.7499999 -0.035156,-0.017578 -0.064453,-0.023437 -0.09375,-0.023437 -0.035156,0 -0.058594,0 -0.070312,-5e-7 z m 0,0"
       style="fill:#262626;fill-opacity:1;fill-rule:nonzero;stroke:none"
       aria-label="y"
       transform="matrix(-2.8333333e-8,-0.66666667,0.66666667,-2.8333333e-8,12.958333,173.07103)" />
    <path
       id="path44"
       d="m 109,282.5 2.17725,-6.59064 2.17727,-6.54406 2.17725,-6.45136 2.17726,-6.31305 2.17725,-6.13016 2.17727,-5.90399 2.17725,-5.63614 2.17726,-5.32847 2.17726,-4.9832 2.17725,-4.60274 2.17726,-4.18977 2.17726,-3.74721 2.17726,-3.2782 2.17725,-2.78604 2.17726,-2.2742 2.17726,-1.74631 2.17726,-1.20608 2.17725,-0.65734 2.17726,-0.10396 2.17726,0.45015 2.17726,1.0011 2.17726,1.54497 2.17725,2.07793 2.17726,2.5962 2.17726,3.09618 2.17726,3.57425 2.17725,4.02711 2.17726,4.45154 2.17726,4.8445 2.17726,5.20329 2.17725,5.52532 2.17726,5.80835 2.17726,6.05034 2.17726,6.24961 2.17725,6.40479 2.17726,6.51468 2.17726,6.57861 2.17726,6.5961 2.17725,6.56699 2.17726,6.49148 2.17726,6.37021 2.17725,6.20389 2.17728,5.99377 2.17724,5.74137 2.17726,5.44836 2.17726,5.11694 2.17725,4.74939 2.17726,4.34827 2.17726,3.91644 2.17725,3.45697 2.17726,2.97309 2.17726,2.4682 2.17726,1.94592 2.17726,1.40988 2.17725,0.86386 2.17726,0.31177 2.17726,-0.24252 2.17725,-0.79511 2.17726,-1.34207 2.17726,-1.87961 2.17726,-2.40381 2.17725,-2.91104 2.17726,-3.39776 2.17726,-3.86045 2.17725,-4.29589 2.17728,-4.70102 2.17724,-5.07294 2.17728,-5.409 2.17724,-5.70691 2.17725,-5.9645 2.17728,-6.18 2.17724,-6.35183 2.17725,-6.47886 2.17728,-6.56005 2.17724,-6.59501 2.17728,-6.58334 2.17724,-6.52524 2.17725,-6.42099 2.17725,-6.27145 2.17727,-6.07762 2.17728,-5.84087 2.17725,-5.56288 2.17724,-5.24559 2.17725,-4.89128 2.17727,-4.50244 2.17728,-4.08177 2.17725,-3.63233 2.17724,-3.15719 2.17725,-2.65978 2.17728,-2.14358 2.17724,-1.61226 2.17728,-1.06955 2.17724,-0.51929 2.17725,0.0347 2.17725,0.58833 2.17727,1.13788 2.17728,1.67938 2.17725,2.20902 2.17724,2.72305 2.17725,3.21788 2.17728,3.68996 2.17724,4.13601 2.17728,4.55283 2.17724,4.93751 2.17725,5.28734 2.17728,5.59981 2.17724,5.87276 2.17728,6.10423 2.17725,6.2926 2.17724,6.43653 2.17728,6.535 2.17724,6.58734 2.17725,6.5932 2.17728,6.55243 2.17724,6.46546 2.17725,6.33279 2.17728,6.1554 2.17724,5.9346 2.17725,5.67181 2.17727,5.36905 2.17725,5.02835 2.17728,4.65213 2.17724,4.24307 2.17725,3.80405 2.17728,3.33813 2.17724,2.84873 2.17728,2.33914 2.17724,1.81305 2.17725,1.27414 2.17725,0.72626 2.17727,0.17324 2.17728,-0.38098 2.17725,-0.93252 2.17724,-1.47751 2.17725,-2.01203 2.17728,-2.53234 2.17724,-3.03479 2.17728,-3.51581 2.17724,-3.97202 2.17725,-4.40014 2.17728,-4.79718 2.17724,-5.1604 2.17728,-5.48716 2.17725,-5.77517 2.17724,-6.0224 2.17725,-6.22708 2.17727,-6.38785 2.17728,-6.50345 2.17725,-6.57318 2.17727,-6.59644 2.17725,-6.57318 2.17725,-6.50345 2.17727,-6.38785 2.17725,-6.22708 2.17724,-6.0224 2.17725,-5.77516 2.17728,-5.48715 2.17724,-5.1604 2.17725,-4.79721 2.17725,-4.40013 2.1773,-3.972 2.17725,-3.51581 2.17724,-3.03481 2.17728,-2.53234 2.17725,-2.01204 2.17724,-1.4775 2.17725,-0.93254 2.17728,-0.38098 2.17724,0.17325 2.17725,0.72627 2.17724,1.27416 2.17731,1.81305 2.17725,2.33912 2.17727,2.84871 2.17725,3.33817 2.17725,3.80404 2.17724,4.24306 2.17728,4.65213 2.17725,5.02835 2.17724,5.36903 2.17725,5.67185 2.17727,5.93457 2.17728,6.15541 2.17725,6.33279 2.17727,6.46546 2.17725,6.55243 2.17725,6.5932 2.17724,6.58734 2.17725,6.535 2.17724,6.43653 2.17731,6.2926 2.17725,6.10422 2.17724,5.87277 2.17731,5.59982 2.17725,5.28733 2.17724,4.9375 2.17725,4.55285 2.17724,4.13599 2.17725,3.68997 2.17725,3.21786 2.1773,2.72309 2.17725,2.20901 2.17725,1.67936 2.17724,1.13787 2.17731,0.58835 2.17725,0.0347 2.17724,-0.51929 2.17725,-1.06955 2.17724,-1.61224 2.17725,-2.14359 2.17725,-2.65979 2.1773,-3.15719 2.17725,-3.63233 2.17725,-4.08178 2.17724,-4.50241 2.17731,-4.8913 2.17724,-5.24561 2.17725,-5.56286 2.17725,-5.84088 2.17724,-6.07761 2.17725,-6.27145 2.17731,-6.42099 2.17724,-6.52524 2.17725,-6.58334 2.17724,-6.59501 2.17725,-6.56005 2.17725,-6.47886 2.1773,-6.35183 2.17725,-6.18 2.17725,-5.9645 2.17724,-5.70691 2.17725,-5.40901 2.17731,-5.07293 2.17724,-4.701 2.17725,-4.2959 2.17724,-3.86046 2.17725,-3.39775 2.17725,-2.91107 2.1773,-2.40381 2.17725,-1.87958 2.17725,-1.34208 2.17724,-0.79512 2.17731,-0.24253 2.17724,0.31179 2.17725,0.86386 2.17725,1.40988 2.17724,1.94591 2.17725,2.46821 2.17724,2.9731 2.17731,3.45697 2.17725,3.91644 2.17724,4.34826 2.17725,4.74937 2.17731,5.11694 2.17724,5.44838 2.17725,5.74137 2.17725,5.99379 2.17724,6.20387 2.17725,6.37021 2.17724,6.49148 2.17731,6.56699 2.17725,6.5961 2.17724,6.57861 2.17731,6.51468 2.17725,6.40479 2.17724,6.24963 2.17725,6.05032 2.17724,5.80835 2.17725,5.5253 2.17725,5.20331 2.17724,4.84451 2.17731,4.45151 2.17725,4.02713 2.17724,3.57425 2.17731,3.09616 2.17725,2.59622 2.17724,2.07795 2.17725,1.54495 2.17724,1.0011 2.17725,0.45016 2.17725,-0.10397 2.1773,-0.65735 2.17725,-1.20609 2.17725,-1.7463 2.1773,-2.2742 2.17725,-2.78605 2.17724,-3.27819 2.17725,-3.7472 2.17725,-4.18975 2.17724,-4.60276 2.17725,-4.98318 2.17725,-5.32849 2.1773,-5.63614 2.17725,-5.90399 2.17724,-6.13016 2.17731,-6.31305 2.17725,-6.45136 2.17724,-6.54406 L 760,282.5"
       style="fill:none;stroke:#e41a1c;stroke-width:4;stroke-linecap:butt;stroke-linejoin:round;stroke-miterlimit:10;stroke-dasharray:none;stroke-opacity:1"
       transform="matrix(0.66666667,0,0,0.66666667,-14.481557,-22.979167)" />
    <path
       id="path45"
       d="m 109,204 2.17725,0.27716 2.17727,0.8295 2.17725,1.37601 2.17726,1.91276 2.17725,2.43605 2.17727,2.94213 2.17725,3.42739 2.17726,3.88851 2.17726,4.32214 2.17725,4.72525 2.17726,5.095 2.17726,5.42879 2.17726,5.7242 2.17725,5.97923 2.17726,6.19203 2.17726,6.36112 2.17726,6.48523 2.17725,6.56363 2.17726,6.59564 2.17726,6.58105 2.17726,6.52005 2.17726,6.413 2.17725,6.26062 2.17726,6.06405 2.17726,5.82468 2.17726,5.54419 2.17725,5.22452 2.17726,4.86795 2.17726,4.47705 2.17726,4.0545 2.17725,3.60334 2.17726,3.12673 2.17726,2.62803 2.17726,2.11077 2.17725,1.57865 2.17726,1.03534 2.17726,0.48471 2.17726,-0.0693 2.17725,-0.62283 2.17726,-1.172 2.17726,-1.71289 2.17725,-2.24164 2.17728,-2.75457 2.17724,-3.24808 2.17726,-3.71863 2.17726,-4.16296 2.17725,-4.57785 2.17726,-4.96042 2.17726,-5.30799 2.17725,-5.61804 2.17726,-5.88846 2.17726,-6.11727 2.17726,-6.30292 2.17726,-6.44403 2.17725,-6.53965 2.17726,-6.58908 2.17726,-6.59198 2.17725,-6.54837 2.17726,-6.45846 2.17726,-6.323 2.17726,-6.14288 2.17725,-5.91938 2.17726,-5.65405 2.17726,-5.34884 2.17725,-5.00585 2.17728,-4.62749 2.17724,-4.21647 2.17728,-3.77568 2.17724,-3.30823 2.17725,-2.81741 2.17728,-2.30669 2.17724,-1.77971 2.17725,-1.24014 2.17728,-0.69181 2.17724,-0.13861 2.17728,0.41558 2.17724,0.96682 2.17725,1.51127 2.17725,2.04501 2.17727,2.56431 2.17728,3.06553 2.17725,3.54507 2.17724,3.99962 2.17725,4.42589 2.17727,4.82092 2.17728,5.18192 2.17725,5.50631 2.17724,5.79183 2.17725,6.03645 2.17728,6.23846 2.17724,6.3964 2.17728,6.50915 2.17724,6.57599 2.17725,6.59635 2.17725,6.57015 2.17727,6.49759 2.17728,6.37909 2.17725,6.21558 2.17724,6.00818 2.17725,5.75833 2.17728,5.46786 2.17724,5.13874 2.17728,4.77334 2.17724,4.37427 2.17725,3.94428 2.17728,3.48645 2.17724,3.00396 2.17728,2.50034 2.17725,1.979 2.17724,1.4437 2.17728,0.89822 2.17724,0.34638 2.17725,-0.20789 2.17728,-0.76071 2.17724,-1.30814 2.17725,-1.84634 2.17728,-2.37149 2.17724,-2.87995 2.17725,-3.36798 2.17727,-3.8323 2.17725,-4.26956 2.17728,-4.67664 2.17724,-5.05069 2.17725,-5.3891 2.17728,-5.68945 2.17724,-5.94965 2.17728,-6.16778 2.17724,-6.34238 2.17725,-6.47223 2.17725,-6.55636 2.17727,-6.59418 2.17728,-6.58545 2.17725,-6.53018 2.17724,-6.42887 2.17725,-6.28212 2.17728,-6.091 2.17724,-5.85689 2.17728,-5.58142 2.17724,-5.26654 2.17725,-4.91447 2.17728,-4.5277 2.17724,-4.10895 2.17728,-3.66119 2.17725,-3.18758 2.17724,-2.69145 2.17725,-2.17633 2.17727,-1.64584 2.17728,-1.10373 2.17725,-0.55382 h 2.17727 l 2.17725,0.55382 2.17725,1.10373 2.17727,1.64584 2.17725,2.17633 2.17724,2.69145 2.17725,3.18758 2.17728,3.66119 2.17724,4.10895 2.17725,4.5277 2.17725,4.91447 2.1773,5.26654 2.17725,5.58142 2.17724,5.85689 2.17728,6.091 2.17725,6.28212 2.17724,6.42887 2.17725,6.53018 2.17728,6.58545 2.17724,6.59418 2.17725,6.55636 2.17724,6.47223 2.17731,6.34238 2.17725,6.16778 2.17727,5.94965 2.17725,5.68945 2.17725,5.3891 2.17724,5.05069 2.17728,4.67664 2.17725,4.26956 2.17724,3.8323 2.17725,3.36798 2.17727,2.87995 2.17728,2.37149 2.17725,1.84634 2.17727,1.30814 2.17725,0.76071 2.17725,0.20789 2.17724,-0.34638 2.17725,-0.89822 2.17724,-1.4437 2.17731,-1.979 2.17725,-2.50034 2.17724,-3.00396 2.17731,-3.48645 2.17725,-3.94428 2.17724,-4.37427 2.17725,-4.77334 2.17724,-5.13874 2.17725,-5.46786 2.17725,-5.75833 2.1773,-6.00818 2.17725,-6.21558 2.17725,-6.37909 2.17724,-6.49759 2.17731,-6.57015 2.17725,-6.59635 2.17724,-6.57599 2.17725,-6.50915 2.17724,-6.3964 2.17725,-6.23846 2.17725,-6.03645 2.1773,-5.79183 2.17725,-5.50631 2.17725,-5.18192 2.17724,-4.82092 2.17731,-4.42589 2.17724,-3.99962 2.17725,-3.54507 2.17725,-3.06553 2.17724,-2.56431 2.17725,-2.04501 2.17731,-1.51127 2.17724,-0.96682 2.17725,-0.41558 2.17724,0.13861 2.17725,0.69181 2.17725,1.24014 2.1773,1.77971 2.17725,2.30669 2.17725,2.81741 2.17724,3.30823 2.17725,3.77568 2.17731,4.21647 2.17724,4.62749 2.17725,5.00585 2.17724,5.34884 2.17725,5.65405 2.17725,5.91938 2.1773,6.14288 2.17725,6.323 2.17725,6.45846 2.17724,6.54837 2.17731,6.59198 2.17724,6.58908 2.17725,6.53965 2.17725,6.44403 2.17724,6.30292 2.17725,6.11727 2.17724,5.88846 2.17731,5.61804 2.17725,5.30799 2.17724,4.96042 2.17725,4.57785 2.17731,4.16296 2.17724,3.71863 2.17725,3.24808 2.17725,2.75457 2.17724,2.24164 2.17725,1.71289 2.17724,1.172 2.17731,0.62283 2.17725,0.0693 2.17724,-0.48471 2.17731,-1.03534 2.17725,-1.57865 2.17724,-2.11077 2.17725,-2.62803 2.17724,-3.12673 2.17725,-3.60334 2.17725,-4.0545 2.17724,-4.47705 2.17731,-4.86795 2.17725,-5.22452 2.17724,-5.54419 2.17731,-5.82468 2.17725,-6.06405 2.17724,-6.26062 2.17725,-6.413 2.17724,-6.52005 2.17725,-6.58105 2.17725,-6.59564 2.1773,-6.56363 2.17725,-6.48523 2.17725,-6.36112 2.1773,-6.19203 2.17725,-5.97923 2.17724,-5.7242 2.17725,-5.42879 2.17725,-5.095 2.17724,-4.72525 2.17725,-4.32214 2.17725,-3.88851 2.1773,-3.42739 2.17725,-2.94213 2.17724,-2.43605 2.17731,-1.91276 2.17725,-1.37601 2.17724,-0.8295 L 760,204"
       style="fill:none;stroke:#377eb8;stroke-width:4;stroke-linecap:butt;stroke-linejoin:bevel;stroke-miterlimit:1;stroke-dasharray:16, 16;stroke-dashoffset:0;stroke-opacity:1"
       transform="matrix(0.66666667,0,0,0.66666667,-14.481557,-22.979167)" />
    <path
       id="path46"
       d="m 109,282.5 2.17725,9.88596 2.17727,9.81613 2.17725,9.677 2.17726,9.46957 2.17725,9.19522 2.17727,8.85599 2.17725,8.45423 2.17726,7.9927 2.17726,7.47482 2.17725,6.90409 2.17726,6.28467 2.17726,5.62082 2.17726,4.91729 2.17725,4.17905 2.17726,3.41131 2.17726,2.61945 2.17726,1.80914 2.17725,0.986 2.17726,0.15594 2.17726,-0.67523 2.17726,-1.50165 2.17726,-2.31744 2.17725,-3.11688 2.17726,-3.89435 2.17726,-4.64423 2.17726,-5.36139 2.17725,-6.04068 2.17726,-6.67727 2.17726,-7.26679 2.17726,-7.80493 2.17725,-8.28797 2.17726,-8.71252 2.17726,-9.0755 2.17726,-9.37445 2.17725,-9.60715 2.17726,-9.77203 2.17726,-9.86795 2.17726,-9.89411 2.17725,-9.85049 2.17726,-9.73724 2.17726,-9.55529 2.17725,-9.30583 2.17728,-8.99068 2.17724,-8.61203 2.17726,-8.17257 2.17726,-7.67542 2.17725,-7.12405 2.17726,-6.5224 2.17726,-5.87467 2.17725,-5.18545 2.17726,-4.45964 2.17726,-3.70232 2.17726,-2.91888 2.17726,-2.11481 2.17725,-1.29581 2.17726,-0.46765 2.17726,0.36379 2.17725,1.19267 2.17726,2.01312 2.17726,2.81938 2.17726,3.60572 2.17725,4.36659 2.17726,5.09663 2.17726,5.79068 2.17725,6.44385 2.17728,7.05151 2.17724,7.6094 2.17728,8.11351 2.17724,8.56036 2.17725,8.94678 2.17728,9.26999 2.17724,9.52775 2.17725,9.71825 2.17728,9.84012 2.17724,9.89248 2.17728,9.87503 2.17724,9.78781 2.17725,9.6315 2.17725,9.4072 2.17727,9.11643 2.17728,8.76132 2.17725,8.3443 2.17724,7.8684 2.17725,7.33692 2.17727,6.75366 2.17728,6.12265 2.17725,5.44849 2.17724,4.73578 2.17725,3.98968 2.17728,3.21539 2.17724,2.41837 2.17728,1.60434 2.17724,0.7789 2.17725,-0.052 2.17725,-0.88251 2.17727,-1.70682 2.17728,-2.51907 2.17725,-3.31351 2.17724,-4.08462 2.17725,-4.82678 2.17728,-5.53495 2.17724,-6.20401 2.17728,-6.82925 2.17724,-7.40628 2.17725,-7.931 2.17728,-8.39972 2.17724,-8.80914 2.17728,-9.15635 2.17725,-9.43887 2.17724,-9.65481 2.17728,-9.80253 2.17724,-9.88101 2.17725,-9.88977 2.17728,-9.82867 2.17724,-9.69815 2.17725,-9.49919 2.17728,-9.23313 2.17724,-8.90187 2.17725,-8.50775 2.17727,-8.05357 2.17725,-7.5425 2.17728,-6.97821 2.17724,-6.36459 2.17725,-5.70607 2.17728,-5.00724 2.17724,-4.27307 2.17728,-3.50869 2.17724,-2.71958 2.17725,-1.91122 2.17725,-1.0894 2.17727,-0.25988 2.17728,0.57148 2.17725,1.3988 2.17724,2.21625 2.17725,3.01805 2.17728,3.79852 2.17724,4.5522 2.17728,5.27371 2.17724,5.958 2.17725,6.6002 2.17728,7.19582 2.17724,7.7406 2.17728,8.23072 2.17725,8.66276 2.17724,9.0336 2.17725,9.34063 2.17727,9.58174 2.17728,9.75519 2.17725,9.85977 2.17727,9.89466 2.17725,9.85977 2.17725,9.75519 2.17727,9.58172 2.17725,9.34067 2.17724,9.03357 2.17725,8.66275 2.17728,8.23074 2.17724,7.7406 2.17725,7.1958 2.17725,6.60022 2.1773,5.95798 2.17725,5.27371 2.17724,4.55222 2.17728,3.79852 2.17725,3.01804 2.17724,2.21625 2.17725,1.3988 2.17728,0.5715 2.17724,-0.25989 2.17725,-1.08941 2.17724,-1.91123 2.17731,-2.71957 2.17725,-3.5087 2.17727,-4.27304 2.17725,-5.00726 2.17725,-5.70606 2.17724,-6.36459 2.17728,-6.97821 2.17725,-7.54251 2.17724,-8.05356 2.17725,-8.50775 2.17727,-8.90186 2.17728,-9.23315 2.17725,-9.49918 2.17727,-9.69815 2.17725,-9.82867 2.17725,-9.88977 2.17724,-9.88101 2.17725,-9.80253 2.17724,-9.6548 2.17731,-9.43888 2.17725,-9.15635 2.17724,-8.80914 2.17731,-8.39972 2.17725,-7.931 2.17724,-7.40628 2.17725,-6.82924 2.17724,-6.20401 2.17725,-5.53494 2.17725,-4.82681 2.1773,-4.0846 2.17725,-3.31352 2.17725,-2.51907 2.17724,-1.70681 2.17731,-0.88252 2.17725,-0.052 2.17724,0.77893 2.17725,1.6043 2.17724,2.4184 2.17725,3.21538 2.17725,3.98968 2.1773,4.7358 2.17725,5.44847 2.17725,6.12266 2.17724,6.75365 2.17731,7.33693 2.17724,7.86839 2.17725,8.34432 2.17725,8.7613 2.17724,9.11643 2.17725,9.40718 2.17731,9.63152 2.17724,9.78781 2.17725,9.87503 2.17724,9.89248 2.17725,9.84012 2.17725,9.71823 2.1773,9.52777 2.17725,9.26999 2.17725,8.94678 2.17724,8.56036 2.17725,8.11353 2.17731,7.60938 2.17724,7.05151 2.17725,6.44385 2.17724,5.79068 2.17725,5.09665 2.17725,4.36657 2.1773,3.60572 2.17725,2.81936 2.17725,2.01316 2.17724,1.19265 2.17731,0.3638 2.17724,-0.46765 2.17725,-1.29584 2.17725,-2.1148 2.17724,-2.91886 2.17725,-3.70233 2.17724,-4.45965 2.17731,-5.18546 2.17725,-5.87466 2.17724,-6.52237 2.17725,-7.12406 2.17731,-7.67541 2.17724,-8.17258 2.17725,-8.61203 2.17725,-8.99069 2.17724,-9.30582 2.17725,-9.5553 2.17724,-9.73724 2.17731,-9.85049 2.17725,-9.89411 2.17724,-9.86795 2.17731,-9.77203 2.17725,-9.60716 2.17724,-9.37444 2.17725,-9.07552 2.17724,-8.71249 2.17725,-8.28798 2.17725,-7.80493 2.17724,-7.26677 2.17731,-6.67729 2.17725,-6.04067 2.17724,-5.3614 2.17731,-4.64424 2.17725,-3.89432 2.17724,-3.1169 2.17725,-2.31744 2.17724,-1.50165 2.17725,-0.67523 2.17725,0.15594 2.1773,0.98601 2.17725,1.80913 2.17725,2.61946 2.1773,3.4113 2.17725,4.17905 2.17724,4.91731 2.17725,5.62082 2.17725,6.28464 2.17724,6.9041 2.17725,7.4748 2.17725,7.99272 2.1773,8.45421 2.17725,8.85601 2.17724,9.19523 2.17731,9.46956 2.17725,9.677 2.17724,9.81613 L 760,282.5"
       style="fill:none;stroke:#4daf4a;stroke-width:4;stroke-linecap:butt;stroke-linejoin:bevel;stroke-miterlimit:1;stroke-dasharray:4, 4;stroke-dashoffset:0;stroke-opacity:1"
       transform="matrix(0.66666667,0,0,0.66666667,-14.481557,-22.979167)" />
    <path
       id="path47"
       d="m 109,478.75 2.17725,-0.41574 2.17727,-1.24423 2.17725,-2.06403 2.17726,-2.86914 2.17725,-3.65408 2.17727,-4.41318 2.17725,-5.14111 2.17726,-5.83277 2.17726,-6.48321 2.17725,-7.08786 2.17726,-7.64252 2.17726,-8.14316 2.17726,-8.5863 2.17725,-8.96884 2.17726,-9.28806 2.17726,-9.54166 2.17726,-9.72787 2.17725,-9.84543 2.17726,-9.89346 2.17726,-9.87161 2.17726,-9.78006 2.17726,-9.61948 2.17725,-9.39093 2.17726,-9.0961 2.17726,-8.73703 2.17726,-8.31625 2.17725,-7.83677 2.17726,-7.30194 2.17726,-6.71557 2.17726,-6.08176 2.17725,-5.405 2.17726,-4.69009 2.17726,-3.94205 2.17726,-3.16618 2.17725,-2.36795 2.17726,-1.553 2.17726,-0.72709 2.17726,0.10397 2.17725,0.93427 2.17726,1.75799 2.17726,2.56931 2.17725,3.36245 2.17728,4.13189 2.17724,4.87213 2.17726,5.57794 2.17726,6.24441 2.17725,6.86679 2.17726,7.44062 2.17726,7.96197 2.17725,8.4271 2.17726,8.83267 2.17726,9.17593 2.17726,9.45435 2.17726,9.66604 2.17725,9.80945 2.17726,9.88364 2.17726,9.88797 2.17725,9.82254 2.17726,9.68774 2.17726,9.4845 2.17726,9.21429 2.17725,8.87906 2.17726,8.48111 2.17726,8.02326 2.17725,7.50876 2.17728,6.94125 2.17724,6.32471 2.17728,5.66351 2.17724,4.96234 2.17725,4.22611 2.17728,3.46005 2.17724,2.66955 2.17725,1.8602 2.17728,1.03772 2.17724,0.20792 2.17728,-0.62335 2.17724,-1.45026 2.17725,-2.26688 2.17725,-3.0675 2.17727,-3.8465 2.17728,-4.59826 2.17725,-5.31763 2.17724,-5.99942 2.17725,-6.63886 2.17727,-7.23138 2.17728,-7.77286 2.17725,-8.25949 2.17724,-8.68774 2.17725,-9.05466 2.17728,-9.3577 2.17724,-9.59457 2.17728,-9.76376 2.17724,-9.86396 2.17725,-9.89453 2.17725,-9.85525 2.17727,-9.74637 2.17728,-9.56864 2.17725,-9.32336 2.17724,-9.01227 2.17725,-8.63751 2.17728,-8.20175 2.17724,-7.70813 2.17728,-7.16004 2.17724,-6.56137 2.17725,-5.91641 2.17728,-5.22967 2.17724,-4.50597 2.17728,-3.75049 2.17725,-2.9685 2.17724,-2.16556 2.17728,-1.34732 2.17724,-0.51958 2.17725,0.31184 2.17728,1.14106 2.17724,1.9622 2.17725,2.76952 2.17728,3.55725 2.17724,4.31987 2.17725,5.05203 2.17727,5.74844 2.17725,6.40433 2.17728,7.01492 2.17724,7.57605 2.17725,8.08368 2.17728,8.53418 2.17724,8.92444 2.17728,9.25168 2.17724,9.51361 2.17725,9.70834 2.17725,9.83451 2.17727,9.89126 2.17728,9.87818 2.17725,9.79528 2.17724,9.64328 2.17725,9.42319 2.17728,9.13651 2.17724,8.78534 2.17728,8.37213 2.17724,7.89981 2.17725,7.3717 2.17728,6.79154 2.17724,6.16345 2.17728,5.49176 2.17725,4.78137 2.17724,4.0372 2.17725,3.2645 2.17727,2.46875 2.17728,1.65561 2.17725,0.83072 h 2.17727 l 2.17725,-0.83072 2.17725,-1.65561 2.17727,-2.46875 2.17725,-3.2645 2.17724,-4.0372 2.17725,-4.78137 2.17728,-5.49176 2.17724,-6.16345 2.17725,-6.79154 2.17725,-7.3717 2.1773,-7.89981 2.17725,-8.37213 2.17724,-8.78534 2.17728,-9.13651 2.17725,-9.42319 2.17724,-9.64328 2.17725,-9.79528 2.17728,-9.87818 2.17724,-9.89126 2.17725,-9.83451 2.17724,-9.70834 2.17731,-9.51361 2.17725,-9.25168 2.17727,-8.92444 2.17725,-8.53418 2.17725,-8.08368 2.17724,-7.57605 2.17728,-7.01492 2.17725,-6.40433 2.17724,-5.74844 2.17725,-5.05203 2.17727,-4.31987 2.17728,-3.55725 2.17725,-2.76952 2.17727,-1.9622 2.17725,-1.14106 2.17725,-0.31184 2.17724,0.51958 2.17725,1.34732 2.17724,2.16556 2.17731,2.9685 2.17725,3.75049 2.17724,4.50597 2.17731,5.22967 2.17725,5.91641 2.17724,6.56137 2.17725,7.16004 2.17724,7.70813 2.17725,8.20175 2.17725,8.63751 2.1773,9.01227 2.17725,9.32336 2.17725,9.56864 2.17724,9.74637 2.17731,9.85525 2.17725,9.89453 2.17724,9.86396 2.17725,9.76376 2.17724,9.59457 2.17725,9.3577 2.17725,9.05466 2.1773,8.68774 2.17725,8.25949 2.17725,7.77286 2.17724,7.23138 2.17731,6.63886 2.17724,5.99942 2.17725,5.31763 2.17725,4.59826 2.17724,3.8465 2.17725,3.0675 2.17731,2.26688 2.17724,1.45026 2.17725,0.62335 2.17724,-0.20792 2.17725,-1.03772 2.17725,-1.8602 2.1773,-2.66955 2.17725,-3.46005 2.17725,-4.22611 2.17724,-4.96234 2.17725,-5.66351 2.17731,-6.32471 2.17724,-6.94125 2.17725,-7.50876 2.17724,-8.02326 2.17725,-8.48111 2.17725,-8.87906 2.1773,-9.21429 2.17725,-9.4845 2.17725,-9.68774 2.17724,-9.82254 2.17731,-9.88797 2.17724,-9.88364 2.17725,-9.80945 2.17725,-9.66604 2.17724,-9.45435 2.17725,-9.17593 2.17724,-8.83267 2.17731,-8.4271 2.17725,-7.96197 2.17724,-7.44062 2.17725,-6.86679 2.17731,-6.24441 2.17724,-5.57794 2.17725,-4.87213 2.17725,-4.13189 2.17724,-3.36245 2.17725,-2.56931 2.17724,-1.75799 2.17731,-0.93427 2.17725,-0.10397 2.17724,0.72709 2.17731,1.553 2.17725,2.36795 2.17724,3.16618 2.17725,3.94205 2.17724,4.69009 2.17725,5.405 2.17725,6.08176 2.17724,6.71557 2.17731,7.30194 2.17725,7.83677 2.17724,8.31625 2.17731,8.73703 2.17725,9.0961 2.17724,9.39093 2.17725,9.61948 2.17724,9.78006 2.17725,9.87161 2.17725,9.89346 2.1773,9.84543 2.17725,9.72787 2.17725,9.54166 2.1773,9.28806 2.17725,8.96884 2.17724,8.5863 2.17725,8.14316 2.17725,7.64252 2.17724,7.08786 2.17725,6.48321 2.17725,5.83277 2.1773,5.14111 2.17725,4.41318 2.17724,3.65408 2.17731,2.86914 2.17725,2.06403 2.17724,1.24423 L 760,478.75"
       style="fill:none;stroke:#984ea3;stroke-width:4;stroke-linecap:butt;stroke-linejoin:round;stroke-miterlimit:10;stroke-dasharray:none;stroke-opacity:1"
       transform="matrix(0.66666667,0,0,0.66666667,-14.481557,-22.979167)" />
    <path
       id="path48"
       d="m 0,-6 c 3.3137085,0 6,2.6862915 6,6 V 0 C 6,3.3137085 3.3137085,6 0,6 -3.3137085,6 -6,3.3137085 -6,0 c 0,-3.3137085 2.6862915,-6 6,-6 z m 0,-4 c -5.5228475,0 -10,4.4771525 -10,10 0,5.5228475 4.4771525,10 10,10 C 5.5228475,10 10,5.5228475 10,0 V 0 C 10,-5.5228475 5.5228475,-10 0,-10 Z"
       style="fill:#984ea3;fill-opacity:1;fill-rule:nonzero;stroke:none"
       transform="matrix(0.66666667,0,0,0.66666667,58.185109,296.1875)" />
    <path
       id="path49"
       d="m 0,-6 c 3.3137085,0 6,2.6862915 6,6 V 0 C 6,3.3137085 3.3137085,6 0,6 -3.3137085,6 -6,3.3137085 -6,0 c 0,-3.3137085 2.6862915,-6 6,-6 z m 0,-4 c -5.5228475,0 -10,4.4771525 -10,10 0,5.5228475 4.4771525,10 10,10 C 5.5228475,10 10,5.5228475 10,0 V 0 C 10,-5.5228475 5.5228475,-10 0,-10 Z"
       style="fill:#984ea3;fill-opacity:1;fill-rule:nonzero;stroke:none"
       transform="matrix(0.66666667,0,0,0.66666667,79.957682,241.63135)" />
    <path
       id="path50"
       d="m 0,-6 c 3.3137085,0 6,2.6862915 6,6 V 0 C 6,3.3137085 3.3137085,6 0,6 -3.3137085,6 -6,3.3137085 -6,0 c 0,-3.3137085 2.6862915,-6 6,-6 z m 0,-4 c -5.5228475,0 -10,4.4771525 -10,10 0,5.5228475 4.4771525,10 10,10 C 5.5228475,10 10,5.5228475 10,0 V 0 C 10,-5.5228475 5.5228475,-10 0,-10 Z"
       style="fill:#984ea3;fill-opacity:1;fill-rule:nonzero;stroke:none"
       transform="matrix(0.66666667,0,0,0.66666667,101.73027,153.79407)" />
    <path
       id="path51"
       d="m 0,-6 c 3.3137085,0 6,2.6862915 6,6 V 0 C 6,3.3137085 3.3137085,6 0,6 -3.3137085,6 -6,3.3137085 -6,0 c 0,-3.3137085 2.6862915,-6 6,-6 z m 0,-4 c -5.5228475,0 -10,4.4771525 -10,10 0,5.5228475 4.4771525,10 10,10 C 5.5228475,10 10,5.5228475 10,0 V 0 C 10,-5.5228475 5.5228475,-10 0,-10 Z"
       style="fill:#984ea3;fill-opacity:1;fill-rule:nonzero;stroke:none"
       transform="matrix(0.66666667,0,0,0.66666667,123.50284,154.76646)" />
    <path
       id="path52"
       d="m 0,-6 c 3.3137085,0 6,2.6862915 6,6 V 0 C 6,3.3137085 3.3137085,6 0,6 -3.3137085,6 -6,3.3137085 -6,0 c 0,-3.3137085 2.6862915,-6 6,-6 z m 0,-4 c -5.5228475,0 -10,4.4771525 -10,10 0,5.5228475 4.4771525,10 10,10 C 5.5228475,10 10,5.5228475 10,0 V 0 C 10,-5.5228475 5.5228475,-10 0,-10 Z"
       style="fill:#984ea3;fill-opacity:1;fill-rule:nonzero;stroke:none"
       transform="matrix(0.66666667,0,0,0.66666667,145.27541,243.19694)" />
    <path
       id="path53"
       d="m 0,-6 c 3.3137085,0 6,2.6862915 6,6 V 0 C 6,3.3137085 3.3137085,6 0,6 -3.3137085,6 -6,3.3137085 -6,0 c 0,-3.3137085 2.6862915,-6 6,-6 z m 0,-4 c -5.5228475,0 -10,4.4771525 -10,10 0,5.5228475 4.4771525,10 10,10 C 5.5228475,10 10,5.5228475 10,0 V 0 C 10,-5.5228475 5.5228475,-10 0,-10 Z"
       style="fill:#984ea3;fill-opacity:1;fill-rule:nonzero;stroke:none"
       transform="matrix(0.66666667,0,0,0.66666667,167.04798,296.17017)" />
    <path
       id="path54"
       d="m 0,-6 c 3.3137085,0 6,2.6862915 6,6 V 0 C 6,3.3137085 3.3137085,6 0,6 -3.3137085,6 -6,3.3137085 -6,0 c 0,-3.3137085 2.6862915,-6 6,-6 z m 0,-4 c -5.5228475,0 -10,4.4771525 -10,10 0,5.5228475 4.4771525,10 10,10 C 5.5228475,10 10,5.5228475 10,0 V 0 C 10,-5.5228475 5.5228475,-10 0,-10 Z"
       style="fill:#984ea3;fill-opacity:1;fill-rule:nonzero;stroke:none"
       transform="matrix(0.66666667,0,0,0.66666667,188.82057,240.05518)" />
    <path
       id="path55"
       d="m 0,-6 c 3.3137085,0 6,2.6862915 6,6 V 0 C 6,3.3137085 3.3137085,6 0,6 -3.3137085,6 -6,3.3137085 -6,0 c 0,-3.3137085 2.6862915,-6 6,-6 z m 0,-4 c -5.5228475,0 -10,4.4771525 -10,10 0,5.5228475 4.4771525,10 10,10 C 5.5228475,10 10,5.5228475 10,0 V 0 C 10,-5.5228475 5.5228475,-10 0,-10 Z"
       style="fill:#984ea3;fill-opacity:1;fill-rule:nonzero;stroke:none"
       transform="matrix(0.66666667,0,0,0.66666667,210.59313,152.84989)" />
    <path
       id="path56"
       d="m 0,-6 c 3.3137085,0 6,2.6862915 6,6 V 0 C 6,3.3137085 3.3137085,6 0,6 -3.3137085,6 -6,3.3137085 -6,0 c 0,-3.3137085 2.6862915,-6 6,-6 z m 0,-4 c -5.5228475,0 -10,4.4771525 -10,10 0,5.5228475 4.4771525,10 10,10 C 5.5228475,10 10,5.5228475 10,0 V 0 C 10,-5.5228475 5.5228475,-10 0,-10 Z"
       style="fill:#984ea3;fill-opacity:1;fill-rule:nonzero;stroke:none"
       transform="matrix(0.66666667,0,0,0.66666667,232.36571,155.76664)" />
    <path
       id="path57"
       d="m 0,-6 c 3.3137085,0 6,2.6862915 6,6 V 0 C 6,3.3137085 3.3137085,6 0,6 -3.3137085,6 -6,3.3137085 -6,0 c 0,-3.3137085 2.6862915,-6 6,-6 z m 0,-4 c -5.5228475,0 -10,4.4771525 -10,10 0,5.5228475 4.4771525,10 10,10 C 5.5228475,10 10,5.5228475 10,0 V 0 C 10,-5.5228475 5.5228475,-10 0,-10 Z"
       style="fill:#984ea3;fill-opacity:1;fill-rule:nonzero;stroke:none"
       transform="matrix(0.66666667,0,0,0.66666667,254.13828,244.75126)" />
    <path
       id="path58"
       d="m 0,-6 c 3.3137085,0 6,2.6862915 6,6 V 0 C 6,3.3137085 3.3137085,6 0,6 -3.3137085,6 -6,3.3137085 -6,0 c 0,-3.3137085 2.6862915,-6 6,-6 z m 0,-4 c -5.5228475,0 -10,4.4771525 -10,10 0,5.5228475 4.4771525,10 10,10 C 5.5228475,10 10,5.5228475 10,0 V 0 C 10,-5.5228475 5.5228475,-10 0,-10 Z"
       style="fill:#984ea3;fill-opacity:1;fill-rule:nonzero;stroke:none"
       transform="matrix(0.66666667,0,0,0.66666667,275.91088,296.11818)" />
    <path
       id="path59"
       d="m 0,-6 c 3.3137085,0 6,2.6862915 6,6 V 0 C 6,3.3137085 3.3137085,6 0,6 -3.3137085,6 -6,3.3137085 -6,0 c 0,-3.3137085 2.6862915,-6 6,-6 z m 0,-4 c -5.5228475,0 -10,4.4771525 -10,10 0,5.5228475 4.4771525,10 10,10 C 5.5228475,10 10,5.5228475 10,0 V 0 C 10,-5.5228475 5.5228475,-10 0,-10 Z"
       style="fill:#984ea3;fill-opacity:1;fill-rule:nonzero;stroke:none"
       transform="matrix(0.66666667,0,0,0.66666667,297.68344,238.46914)" />
    <path
       id="path60"
       d="m 0,-6 c 3.3137085,0 6,2.6862915 6,6 V 0 C 6,3.3137085 3.3137085,6 0,6 -3.3137085,6 -6,3.3137085 -6,0 c 0,-3.3137085 2.6862915,-6 6,-6 z m 0,-4 c -5.5228475,0 -10,4.4771525 -10,10 0,5.5228475 4.4771525,10 10,10 C 5.5228475,10 10,5.5228475 10,0 V 0 C 10,-5.5228475 5.5228475,-10 0,-10 Z"
       style="fill:#984ea3;fill-opacity:1;fill-rule:nonzero;stroke:none"
       transform="matrix(0.66666667,0,0,0.66666667,319.456,151.93435)" />
    <path
       id="path61"
       d="m 0,-6 c 3.3137085,0 6,2.6862915 6,6 V 0 C 6,3.3137085 3.3137085,6 0,6 -3.3137085,6 -6,3.3137085 -6,0 c 0,-3.3137085 2.6862915,-6 6,-6 z m 0,-4 c -5.5228475,0 -10,4.4771525 -10,10 0,5.5228475 4.4771525,10 10,10 C 5.5228475,10 10,5.5228475 10,0 V 0 C 10,-5.5228475 5.5228475,-10 0,-10 Z"
       style="fill:#984ea3;fill-opacity:1;fill-rule:nonzero;stroke:none"
       transform="matrix(0.66666667,0,0,0.66666667,341.22861,156.79417)" />
    <path
       id="path62"
       d="m 0,-6 c 3.3137085,0 6,2.6862915 6,6 V 0 C 6,3.3137085 3.3137085,6 0,6 -3.3137085,6 -6,3.3137085 -6,0 c 0,-3.3137085 2.6862915,-6 6,-6 z m 0,-4 c -5.5228475,0 -10,4.4771525 -10,10 0,5.5228475 4.4771525,10 10,10 C 5.5228475,10 10,5.5228475 10,0 V 0 C 10,-5.5228475 5.5228475,-10 0,-10 Z"
       style="fill:#984ea3;fill-opacity:1;fill-rule:nonzero;stroke:none"
       transform="matrix(0.66666667,0,0,0.66666667,363.00115,246.29364)" />
    <path
       id="path63"
       d="m 0,-6 c 3.3137085,0 6,2.6862915 6,6 V 0 C 6,3.3137085 3.3137085,6 0,6 -3.3137085,6 -6,3.3137085 -6,0 c 0,-3.3137085 2.6862915,-6 6,-6 z m 0,-4 c -5.5228475,0 -10,4.4771525 -10,10 0,5.5228475 4.4771525,10 10,10 C 5.5228475,10 10,5.5228475 10,0 V 0 C 10,-5.5228475 5.5228475,-10 0,-10 Z"
       style="fill:#984ea3;fill-opacity:1;fill-rule:nonzero;stroke:none"
       transform="matrix(0.66666667,0,0,0.66666667,384.77373,296.03156)" />
    <path
       id="path64"
       d="m 0,-6 c 3.3137085,0 6,2.6862915 6,6 V 0 C 6,3.3137085 3.3137085,6 0,6 -3.3137085,6 -6,3.3137085 -6,0 c 0,-3.3137085 2.6862915,-6 6,-6 z m 0,-4 c -5.5228475,0 -10,4.4771525 -10,10 0,5.5228475 4.4771525,10 10,10 C 5.5228475,10 10,5.5228475 10,0 V 0 C 10,-5.5228475 5.5228475,-10 0,-10 Z"
       style="fill:#984ea3;fill-opacity:1;fill-rule:nonzero;stroke:none"
       transform="matrix(0.66666667,0,0,0.66666667,406.54632,236.87394)" />
    <path
       id="path65"
       d="m 0,-6 c 3.3137085,0 6,2.6862915 6,6 V 0 C 6,3.3137085 3.3137085,6 0,6 -3.3137085,6 -6,3.3137085 -6,0 c 0,-3.3137085 2.6862915,-6 6,-6 z m 0,-4 c -5.5228475,0 -10,4.4771525 -10,10 0,5.5228475 4.4771525,10 10,10 C 5.5228475,10 10,5.5228475 10,0 V 0 C 10,-5.5228475 5.5228475,-10 0,-10 Z"
       style="fill:#984ea3;fill-opacity:1;fill-rule:nonzero;stroke:none"
       transform="matrix(0.66666667,0,0,0.66666667,428.3189,151.04783)" />
    <path
       id="path66"
       d="m 0,-6 c 3.3137085,0 6,2.6862915 6,6 V 0 C 6,3.3137085 3.3137085,6 0,6 -3.3137085,6 -6,3.3137085 -6,0 c 0,-3.3137085 2.6862915,-6 6,-6 z m 0,-4 c -5.5228475,0 -10,4.4771525 -10,10 0,5.5228475 4.4771525,10 10,10 C 5.5228475,10 10,5.5228475 10,0 V 0 C 10,-5.5228475 5.5228475,-10 0,-10 Z"
       style="fill:#984ea3;fill-opacity:1;fill-rule:nonzero;stroke:none"
       transform="matrix(0.66666667,0,0,0.66666667,450.09144,157.84857)" />
    <path
       id="path67"
       d="m 0,-6 c 3.3137085,0 6,2.6862915 6,6 V 0 C 6,3.3137085 3.3137085,6 0,6 -3.3137085,6 -6,3.3137085 -6,0 c 0,-3.3137085 2.6862915,-6 6,-6 z m 0,-4 c -5.5228475,0 -10,4.4771525 -10,10 0,5.5228475 4.4771525,10 10,10 C 5.5228475,10 10,5.5228475 10,0 V 0 C 10,-5.5228475 5.5228475,-10 0,-10 Z"
       style="fill:#984ea3;fill-opacity:1;fill-rule:nonzero;stroke:none"
       transform="matrix(0.66666667,0,0,0.66666667,471.86406,247.82338)" />
    <path
       id="path68"
       d="M 744,156 V 63 H 355 v 93 z"
       style="fill:#ffffff;fill-opacity:1;fill-rule:nonzero;stroke:none"
       transform="matrix(0.66666667,0,0,0.66666667,-14.481557,-22.979167)" />
    <path
       id="path69"
       d="m 3.0252228,5.1591203 c 0.4980469,0.8554688 1.3828125,1.2890625 2.6484375,1.2890625 1.125,0 2.0976562,-0.3984375 2.9296875,-1.1953125 0.84375,-0.796875 1.5117192,-1.7578125 2.0156252,-2.8828125 0.515625,-1.125 0.914062,-2.28515621 1.195312,-3.46875 -1.066406,1.00195317 -2.2207028,1.50000004 -3.4687497,1.50000004 -0.9375,0 -1.7460938,-0.1640625 -2.4140625,-0.4921875 -0.6738281,-0.328125 -1.1953125,-0.80859375 -1.5703125,-1.45312504 -0.3632813,-0.65625 -0.5390625,-1.4414062 -0.5390625,-2.3671875 0,-0.796875 0.099609,-1.5996093 0.3046875,-2.4140625 0.2167969,-0.8261718 0.515625,-1.7460937 0.890625,-2.765625 0.3867187,-1.0136723 0.7265625,-1.8984373 1.0078125,-2.6484373 0.3105469,-0.873047 0.46875,-1.59375 0.46875,-2.15625 0,-0.714844 -0.2695313,-1.078125 -0.796875,-1.078125 -0.9550781,0 -1.734375,0.492187 -2.34375,1.476562 -0.609375,0.972657 -1.0664063,2.056641 -1.359375,3.257813 -0.046875,0.158203 -0.1523438,0.234375 -0.3046875,0.234375 h -0.421875 c -0.2050781,0 -0.30468752,-0.105469 -0.30468752,-0.328125 v -0.117188 c 0.38671872,-1.417968 0.98437502,-2.683593 1.78125002,-3.796875 0.796875,-1.107422 1.8046875,-1.664062 3.0234375,-1.664062 0.8554687,0 1.5820312,0.28125 2.1796875,0.84375 0.5917969,0.5625 0.890625,1.283203 0.890625,2.15625 0,0.439453 -0.1054688,0.908203 -0.3046875,1.40625 -0.1113281,0.28125 -0.3515625,0.914062 -0.7265625,1.8984373 -0.375,0.984375 -0.6679688,1.8046875 -0.8671875,2.4609375 -0.1875,0.6445313 -0.3515625,1.2773438 -0.4921875,1.8984375 -0.1289063,0.609375 -0.1875,1.2304688 -0.1875,1.8515625 0,0.796875 0.1699219,1.4765625 0.515625,2.0390625 0.3398437,0.55078129 0.8789062,0.82031254 1.6171875,0.82031254 1.4824219,0 2.8183597,-0.91406254 4.0078127,-2.74218754 l 2.71875,-11.0859373 c 0.07617,-0.310547 0.263672,-0.574219 0.5625,-0.796875 0.292969,-0.234375 0.615234,-0.351563 0.960937,-0.351563 0.28125,0 0.527344,0.09375 0.75,0.28125 0.216797,0.1875 0.328125,0.433594 0.328125,0.726563 0,0.140625 -0.01172,0.234375 -0.02344,0.28125 L 14.11116,0.12005784 C 13.794754,1.3388078 13.220535,2.5106828 12.376785,3.6356828 c -0.84375,1.125 -1.863281,2.0273438 -3.0468747,2.71875 -1.1894531,0.6855469 -2.4316406,1.03125 -3.7265625,1.03125 -0.609375,0 -1.21875,-0.1289062 -1.828125,-0.375 -0.609375,-0.234375 -1.1015625,-0.5976562 -1.4765625,-1.078125 -0.375,-0.46875 -0.5625,-1.0253906 -0.5625,-1.6640625 0,-0.65625 0.1875,-1.2304687 0.5625,-1.7109375 0.3867187,-0.4863281 0.9023437,-0.7265625 1.546875,-0.7265625 0.3867187,0 0.7148437,0.1171875 0.984375,0.3515625 0.2636719,0.2460938 0.3984375,0.5683594 0.3984375,0.9609375 0,0.5449219 -0.2109375,1.0195313 -0.6328125,1.4296875 -0.4101563,0.4042969 -0.8847656,0.609375 -1.4296875,0.609375 -0.017578,0 -0.041016,-0.011719 -0.070312,-0.023437 -0.017578,0 -0.041016,0 -0.070312,0 z m 0,0"
       style="fill:#000000;fill-opacity:1;fill-rule:nonzero;stroke:none"
       aria-label="y"
       transform="matrix(0.66666667,0,0,0.66666667,269.15897,41.154336)" />
    <path
       id="path70"
       d="m 2.7184844,-4.7783797 c -0.2050781,0 -0.375,-0.076172 -0.515625,-0.234375 -0.1289062,-0.1523437 -0.1875,-0.3164062 -0.1875,-0.4921875 0,-0.1992187 0.058594,-0.375 0.1875,-0.515625 0.140625,-0.140625 0.3105469,-0.2109375 0.515625,-0.2109375 H 25.312234 c 0.169922,0 0.316407,0.070312 0.445313,0.2109375 0.140625,0.140625 0.210937,0.3164063 0.210937,0.515625 0,0.1757813 -0.07031,0.3398438 -0.210937,0.4921875 -0.128906,0.1582032 -0.275391,0.234375 -0.445313,0.234375 z m 0,-7.0078123 c -0.2050781,0 -0.375,-0.07031 -0.515625,-0.210938 -0.1289062,-0.140625 -0.1875,-0.304687 -0.1875,-0.492187 0,-0.1875 0.058594,-0.351563 0.1875,-0.492188 0.140625,-0.152343 0.3105469,-0.234375 0.515625,-0.234375 H 25.312234 c 0.169922,0 0.316407,0.08203 0.445313,0.234375 0.140625,0.140625 0.210937,0.304688 0.210937,0.492188 0,0.1875 -0.07031,0.351562 -0.210937,0.492187 -0.128906,0.140625 -0.275391,0.210938 -0.445313,0.210938 z m 0,0"
       style="fill:#000000;fill-opacity:1;fill-rule:nonzero;stroke:none"
       aria-label="="
       transform="matrix(0.66666667,0,0,0.66666667,288.4533,41.154336)" />
    <path
       id="path71"
       d="M 1.1932528,0.12005784 V -5.7627547 c 0,-0.1875 0.1054687,-0.28125 0.328125,-0.28125 h 0.421875 c 0.140625,0 0.234375,0.09375 0.28125,0.28125 0.6679687,3.4863282 2.2851562,5.22656254 4.8515625,5.22656254 1.1367187,0 2.0917969,-0.2578125 2.859375,-0.77343754 0.7617187,-0.515625 1.1484377,-1.3125 1.1484377,-2.390625 0,-0.7792968 -0.298828,-1.4414062 -0.890625,-1.9921875 C 9.5955965,-6.237364 8.8866122,-6.6065047 8.0604403,-6.7940047 L 5.6698153,-7.2861922 C 4.8553622,-7.456114 4.1112215,-7.7197859 3.4432528,-8.0830672 2.7870028,-8.440489 2.2479403,-8.9268172 1.8260653,-9.5361922 1.4041903,-10.145567 1.1932528,-10.848692 1.1932528,-11.645567 c 0,-1.042969 0.2695312,-1.904297 0.8203125,-2.578125 0.5625,-0.667969 1.2890625,-1.154297 2.1796875,-1.453125 0.890625,-0.310547 1.8515625,-0.46875 2.8828125,-0.46875 1.2304687,0 2.3085937,0.328125 3.2343747,0.984375 l 1.03125,-0.890625 c 0,-0.05859 0.05274,-0.09375 0.164063,-0.09375 h 0.28125 c 0.05859,0 0.123047,0.04101 0.1875,0.117187 0.05859,0.06445 0.09375,0.128907 0.09375,0.1875 v 4.710938 c 0,0.222656 -0.09375,0.328125 -0.28125,0.328125 H 11.34169 c -0.222656,0 -0.328125,-0.105469 -0.328125,-0.328125 0,-1.248047 -0.351562,-2.25586 -1.0546872,-3.023438 -0.6914063,-0.761718 -1.6582031,-1.148437 -2.90625,-1.148437 -1.078125,0 -2.015625,0.205078 -2.8125,0.609375 -0.7851563,0.392578 -1.171875,1.078125 -1.171875,2.0625 0,0.65625 0.28125,1.207031 0.84375,1.640625 0.5625,0.421875 1.2246094,0.726562 1.9921875,0.914062 l 2.4375,0.4687503 c 0.8261719,0.1875 1.59375,0.5097657 2.2968747,0.9609375 0.714844,0.4394532 1.277344,1.0019532 1.6875,1.6875 0.421875,0.6738282 0.632813,1.4296875 0.632813,2.2734375 0,0.8789063 -0.152344,1.6347657 -0.445313,2.2734375 -0.298828,0.6445313 -0.720703,1.171875 -1.265625,1.59375004 -0.533203,0.421875 -1.166015,0.7265625 -1.8984372,0.9140625 -0.7207031,0.19921875 -1.4765625,0.3046875 -2.2734375,0.3046875 -1.5,0 -2.7832031,-0.49804687 -3.84375,-1.50000004 l -1.3125,1.42968754 c 0,0.046875 -0.064453,0.0703125 -0.1875,0.0703125 H 1.5213778 c -0.2226563,0 -0.328125,-0.09375 -0.328125,-0.28125 z m 0,0"
       style="fill:#000000;fill-opacity:1;fill-rule:nonzero;stroke:none"
       aria-label="s"
       transform="matrix(0.66666667,0,0,0.66666667,313.78653,41.154336)" />
    <path
       id="path72"
       d="M 1.1026378,0.00287034 V -1.2627547 c 0.8261719,0 1.5,-0.058594 2.015625,-0.1875 0.5273437,-0.140625 0.796875,-0.4570312 0.796875,-0.9609375 v -9.8203128 c 0,-0.919922 -0.1816406,-1.482422 -0.5390625,-1.6875 -0.3457031,-0.216797 -1.0488281,-0.328125 -2.109375,-0.328125 v -1.265625 l 5.1796875,-0.398437 v 13.4999998 c 0,0.5039063 0.2226562,0.8203125 0.6796875,0.9609375 0.46875,0.1289063 1.0839844,0.1875 1.8515625,0.1875 V 0.00287034 Z M 2.6495128,-22.098692 c 0,-0.527344 0.1933594,-0.990235 0.5859375,-1.382813 0.4042969,-0.404297 0.8671875,-0.609375 1.3828125,-0.609375 0.328125,0 0.6445312,0.09375 0.9609375,0.28125 0.328125,0.175782 0.5742187,0.416016 0.75,0.726563 0.1699219,0.316406 0.2578125,0.644531 0.2578125,0.984375 0,0.515625 -0.2050781,0.978515 -0.609375,1.382812 -0.3925781,0.392578 -0.84375,0.585938 -1.359375,0.585938 -0.515625,0 -0.9785156,-0.19336 -1.3828125,-0.585938 -0.3925781,-0.404297 -0.5859375,-0.867187 -0.5859375,-1.382812 z m 0,0"
       style="fill:#000000;fill-opacity:1;fill-rule:nonzero;stroke:none"
       aria-label="i"
       transform="matrix(0.66666667,0,0,0.66666667,323.25319,41.154336)" />
    <path
       id="path73"
       d="M 1.075264,0.00287034 V -1.2627547 c 0.8085938,0 1.4824219,-0.058594 2.015625,-0.1875 0.5273438,-0.140625 0.796875,-0.4570312 0.796875,-0.9609375 v -9.8203128 c 0,-0.638672 -0.1054687,-1.101562 -0.3046875,-1.382812 -0.1875,-0.292969 -0.4628906,-0.47461 -0.8203125,-0.539063 -0.3632812,-0.05859 -0.9257812,-0.09375 -1.6875,-0.09375 v -1.265625 l 5.2265625,-0.398437 v 3.515625 c 0.46875,-1.03125 1.171875,-1.875 2.109375,-2.53125 0.9492188,-0.65625 1.9804685,-0.984375 3.0937505,-0.984375 1.669921,0 2.917968,0.398437 3.75,1.195312 0.84375,0.796875 1.265625,2.015625 1.265625,3.65625 v 8.6484378 c 0,0.5039063 0.263671,0.8203125 0.796875,0.9609375 0.527343,0.1289063 1.201171,0.1875 2.015625,0.1875 v 1.26562504 h -8.25 V -1.2627547 c 0.826171,0 1.5,-0.058594 2.015625,-0.1875 0.527343,-0.140625 0.796875,-0.4570312 0.796875,-0.9609375 v -8.5312498 c 0,-1.171875 -0.175782,-2.132813 -0.515625,-2.882813 -0.328125,-0.761718 -1.025391,-1.148437 -2.085938,-1.148437 -1.3945312,0 -2.5429687,0.55664 -3.4453125,1.664062 -0.890625,1.113282 -1.3359375,2.378907 -1.3359375,3.7968753 v 7.1015625 c 0,0.5039063 0.2636719,0.8203125 0.796875,0.9609375 0.5273438,0.1289063 1.2011719,0.1875 2.015625,0.1875 v 1.26562504 z m 0,0"
       style="fill:#000000;fill-opacity:1;fill-rule:nonzero;stroke:none"
       aria-label="n"
       transform="matrix(0.66666667,0,0,0.66666667,329.91988,41.154336)" />
    <path
       id="path74"
       d="m 2.8136293,-1.0283797 c 0.421875,0.32812504 1.0195312,0.49218754 1.8046875,0.49218754 0.75,0 1.40625,-0.35742187 1.96875,-1.07812504 0.5742187,-0.7324218 0.9726562,-1.5234375 1.1953125,-2.3671875 l 1.6171875,-6.3984373 c 0.2636719,-1.154297 0.3984375,-1.945313 0.3984375,-2.367188 0,-0.591797 -0.1757813,-1.107422 -0.515625,-1.546875 -0.328125,-0.451172 -0.7910156,-0.679687 -1.3828125,-0.679687 -0.7675781,0 -1.4882813,0.246094 -2.15625,0.726562 -0.65625,0.46875 -1.21875,1.072266 -1.6875,1.804688 -0.4570313,0.720703 -0.7734375,1.453125 -0.9609375,2.203125 -0.046875,0.158203 -0.140625,0.234375 -0.28125,0.234375 H 2.3683168 c -0.1875,0 -0.28125,-0.105469 -0.28125,-0.328125 v -0.117188 c 0.234375,-0.890625 0.6328125,-1.757812 1.1953125,-2.601562 0.5625,-0.84375 1.2480469,-1.529297 2.0625,-2.0625 0.8261719,-0.527344 1.6992187,-0.796875 2.625,-0.796875 0.8730469,0 1.6640625,0.234375 2.3671877,0.703125 0.714844,0.46875 1.224609,1.113281 1.523437,1.921875 0.404297,-0.732422 0.925782,-1.347656 1.570313,-1.851563 0.638672,-0.515625 1.335937,-0.773437 2.085937,-0.773437 0.515625,0 1.03711,0.09375 1.570313,0.28125 0.544922,0.175781 0.990234,0.445312 1.335937,0.820312 0.339844,0.375 0.515625,0.84375 0.515625,1.40625 0,0.609375 -0.199218,1.142578 -0.585937,1.59375 -0.392578,0.439453 -0.890625,0.65625 -1.5,0.65625 -0.392578,0 -0.720703,-0.123047 -0.984375,-0.375 -0.251953,-0.246093 -0.375,-0.5625 -0.375,-0.9375 0,-0.498047 0.169922,-0.9375 0.515625,-1.3125 0.339844,-0.386718 0.755859,-0.615234 1.242187,-0.679687 -0.439453,-0.339844 -1.042968,-0.515625 -1.804687,-0.515625 -0.767578,0 -1.441406,0.363281 -2.015625,1.078125 -0.5625,0.703125 -0.960938,1.5 -1.195313,2.390625 l -1.570312,6.3515623 c -0.269531,0.9726563 -0.398438,1.7578125 -0.398438,2.3671875 0,0.609375 0.169922,1.1425782 0.515625,1.59375 0.339844,0.43945317 0.802735,0.65625004 1.382813,0.65625004 1.125,0 2.121094,-0.49218754 3,-1.47656254 0.890625,-0.9960937 1.476562,-2.0917968 1.757812,-3.28125 0.04687,-0.140625 0.140625,-0.2109375 0.28125,-0.2109375 h 0.445313 c 0.09375,0 0.169922,0.035156 0.234375,0.09375 0.05859,0.064453 0.09375,0.140625 0.09375,0.234375 0,0.017578 -0.01758,0.046875 -0.04687,0.09375 -0.345703,1.4414063 -1.066406,2.7128907 -2.15625,3.8203125 -1.078125,1.11328129 -2.308594,1.66406254 -3.679688,1.66406254 -0.878906,0 -1.675781,-0.234375 -2.3906247,-0.703125 -0.703125,-0.48046875 -1.2070313,-1.12500004 -1.5,-1.92187504 -0.375,0.703125 -0.890625,1.32421879 -1.546875,1.85156254 -0.65625,0.515625 -1.359375,0.7734375 -2.109375,0.7734375 -0.515625,0 -1.0488281,-0.09375 -1.59375,-0.28125 C 2.403473,-0.04986403 1.9581605,-0.32525466 1.6183168,-0.70025466 1.2726137,-1.0752547 1.1026918,-1.549864 1.1026918,-2.1299422 c 0,-0.5625 0.1933594,-1.0664062 0.5859375,-1.5234375 0.4042969,-0.46875 0.8964844,-0.703125 1.4765625,-0.703125 0.4042969,0 0.7382812,0.1289063 1.0078125,0.375 0.2636719,0.234375 0.3984375,0.5390625 0.3984375,0.9140625 0,0.515625 -0.1757813,0.9609375 -0.515625,1.3359375 -0.328125,0.375 -0.7441406,0.609375 -1.2421875,0.703125 z m 0,0"
       style="fill:#000000;fill-opacity:1;fill-rule:nonzero;stroke:none"
       aria-label="x"
       transform="matrix(0.66666667,0,0,0.66666667,347.25315,41.154336)" />
    <path
       id="path75"
       d="m 360.99667,87.560387 h 59.96662"
       style="fill:none;stroke:#e41a1c;stroke-width:4;stroke-linecap:butt;stroke-linejoin:round;stroke-miterlimit:10;stroke-dasharray:none;stroke-opacity:1"
       transform="matrix(0.66666667,0,0,0.66666667,-14.481557,-22.979167)" />
    <path
       id="path76"
       d="M 1.1033478,-0.00134871 V -1.2669737 c 2.484375,0 3.7265625,-0.3808594 3.7265625,-1.1484375 V -22.196661 c 0,-0.75 -1.2421875,-1.125 -3.7265625,-1.125 v -1.265625 H 12.775223 v 1.265625 c -3.0644533,0 -4.5937502,0.375 -4.5937502,1.125 v 19.7812498 c 0,0.515625 0.140625,0.8378906 0.421875,0.9609375 0.2929687,0.1289062 0.7617187,0.1875 1.4062502,0.1875 h 2.765625 c 1.792969,0 3.175781,-0.328125 4.148437,-0.984375 0.984375,-0.65625 1.669922,-1.546875 2.0625,-2.671875 0.404297,-1.1367188 0.714844,-2.6484375 0.9375,-4.5234375 h 1.03125 l -1.007812,9.44531249 z m 0,0"
       style="fill:#000000;fill-opacity:1;fill-rule:nonzero;stroke:none"
       aria-label="L"
       transform="matrix(0.66666667,0,0,0.66666667,269.15897,70.407149)" />
    <path
       id="path77"
       d="M 1.1032948,-0.00134871 V -1.2669737 c 0.8261719,0 1.5,-0.058594 2.015625,-0.1875 0.5273437,-0.140625 0.796875,-0.4570313 0.796875,-0.9609375 v -9.8203128 c 0,-0.919922 -0.1816406,-1.482422 -0.5390625,-1.6875 -0.3457031,-0.216797 -1.0488281,-0.328125 -2.109375,-0.328125 v -1.265625 l 5.1796875,-0.398437 v 13.4999998 c 0,0.5039062 0.2226562,0.8203125 0.6796875,0.9609375 0.46875,0.1289062 1.0839844,0.1875 1.8515625,0.1875 v 1.26562499 z M 2.6501698,-22.102911 c 0,-0.527344 0.1933594,-0.990235 0.5859375,-1.382813 0.4042969,-0.404297 0.8671875,-0.609375 1.3828125,-0.609375 0.328125,0 0.6445312,0.09375 0.9609375,0.28125 0.328125,0.175782 0.5742187,0.416016 0.75,0.726563 0.1699219,0.316406 0.2578125,0.644531 0.2578125,0.984375 0,0.515625 -0.2050781,0.978515 -0.609375,1.382812 -0.3925781,0.392578 -0.84375,0.585938 -1.359375,0.585938 -0.515625,0 -0.9785156,-0.19336 -1.3828125,-0.585938 -0.3925781,-0.404297 -0.5859375,-0.867187 -0.5859375,-1.382812 z m 0,0"
       style="fill:#000000;fill-opacity:1;fill-rule:nonzero;stroke:none"
       aria-label="i"
       transform="matrix(0.66666667,0,0,0.66666667,284.159,70.407149)" />
    <path
       id="path78"
       d="M 1.07592,-0.00134871 V -1.2669737 c 0.8085938,0 1.4824219,-0.058594 2.015625,-0.1875 0.5273438,-0.140625 0.796875,-0.4570313 0.796875,-0.9609375 v -9.8203128 c 0,-0.638672 -0.1054687,-1.101562 -0.3046875,-1.382812 -0.1875,-0.292969 -0.4628906,-0.47461 -0.8203125,-0.539063 -0.3632812,-0.05859 -0.9257812,-0.09375 -1.6875,-0.09375 v -1.265625 l 5.2265625,-0.398437 v 3.515625 c 0.46875,-1.03125 1.171875,-1.875 2.109375,-2.53125 0.9492188,-0.65625 1.9804685,-0.984375 3.0937505,-0.984375 1.669921,0 2.917968,0.398437 3.75,1.195312 0.84375,0.796875 1.265625,2.015625 1.265625,3.65625 v 8.6484378 c 0,0.5039062 0.263671,0.8203125 0.796875,0.9609375 0.527343,0.1289062 1.201171,0.1875 2.015625,0.1875 v 1.26562499 h -8.25 V -1.2669737 c 0.826171,0 1.5,-0.058594 2.015625,-0.1875 0.527343,-0.140625 0.796875,-0.4570313 0.796875,-0.9609375 v -8.5312498 c 0,-1.171875 -0.175782,-2.132813 -0.515625,-2.882813 -0.328125,-0.761718 -1.025391,-1.148437 -2.085938,-1.148437 -1.3945312,0 -2.5429687,0.55664 -3.4453125,1.664062 -0.890625,1.113282 -1.3359375,2.378907 -1.3359375,3.7968753 v 7.1015625 c 0,0.5039062 0.2636719,0.8203125 0.796875,0.9609375 0.5273438,0.1289062 1.2011719,0.1875 2.015625,0.1875 v 1.26562499 z m 0,0"
       style="fill:#000000;fill-opacity:1;fill-rule:nonzero;stroke:none"
       aria-label="n"
       transform="matrix(0.66666667,0,0,0.66666667,290.82569,70.407149)" />
    <path
       id="path79"
       d="m 8.9782028,0.39708879 c -1.4707031,0 -2.8242188,-0.38671875 -4.0546875,-1.1484375 C 3.7047653,-1.5130675 2.7438278,-2.5384581 2.0407028,-3.8216612 1.3492965,-5.099005 1.0094528,-6.45838 1.0094528,-7.8997862 c 0,-1.40625 0.3164062,-2.7421878 0.9609375,-4.0078128 0.6386719,-1.265625 1.5292969,-2.285156 2.671875,-3.070312 1.1367187,-0.779297 2.4140625,-1.171875 3.8203125,-1.171875 1.0898437,0 2.0449222,0.1875 2.8593752,0.5625 0.826172,0.375 1.5,0.890625 2.015625,1.546875 0.527344,0.65625 0.925781,1.429687 1.195312,2.320312 0.28125,0.890625 0.421875,1.8691409 0.421875,2.9296878 0,0.3164062 -0.128906,0.46875 -0.375,0.46875 H 4.1500778 v 0.3984375 c 0,1.9863281 0.3984375,3.6972656 1.1953125,5.1328125 0.8085937,1.4238281 2.1210937,2.13281249 3.9375,2.13281249 0.7324217,0 1.4121097,-0.1640625 2.0390627,-0.49218749 0.638672,-0.328125 1.183594,-0.7792969 1.640625,-1.359375 0.46875,-0.5917969 0.779297,-1.2246094 0.9375,-1.8984375 0.0293,-0.076172 0.07617,-0.1464844 0.140625,-0.2109375 0.05859,-0.058594 0.128906,-0.09375 0.210937,-0.09375 h 0.328125 c 0.246094,0 0.375,0.1523437 0.375,0.4453125 -0.345703,1.359375 -1.078125,2.4785156 -2.203125,3.35156249 -1.125,0.87890625 -2.384765,1.3125 -3.7734372,1.3125 z m -4.78125,-9.60937499 h 8.2031252 c 0,-0.9023438 -0.128906,-1.8164058 -0.375,-2.7421878 -0.251953,-0.919922 -0.673828,-1.6875 -1.265625,-2.296875 -0.580078,-0.621093 -1.3476565,-0.9375 -2.2968752,-0.9375 -1.359375,0 -2.4140625,0.644532 -3.1640625,1.921875 -0.7382813,1.265625 -1.1015625,2.619141 -1.1015625,4.0546878 z m 0,0"
       style="fill:#000000;fill-opacity:1;fill-rule:nonzero;stroke:none"
       aria-label="e"
       transform="matrix(0.66666667,0,0,0.66666667,304.15906,70.407149)" />
    <path
       id="path80"
       d="m 1.8024445,-0.00134871 v -0.9609375 c 0,-0.0585938 0.023437,-0.12890629 0.070312,-0.21093749 l 5.578125,-6.1875 c 0.84375,-0.9023438 1.5292969,-1.6699219 2.0625,-2.296875 0.5273435,-0.6210933 1.0546885,-1.3359373 1.5703135,-2.1328123 0.515625,-0.808594 0.919921,-1.628906 1.21875,-2.460938 0.292968,-0.84375 0.445312,-1.734375 0.445312,-2.671875 0,-0.984375 -0.1875,-1.921875 -0.5625,-2.8125 -0.363282,-0.902343 -0.902344,-1.623047 -1.617187,-2.15625 -0.7207041,-0.544922 -1.5878916,-0.820312 -2.6015635,-0.820312 -1.0488281,0 -1.9863281,0.316406 -2.8125,0.9375 -0.8320312,0.626953 -1.4179687,1.441406 -1.7578125,2.4375 0.09375,-0.0293 0.2167969,-0.04687 0.375,-0.04687 0.5449219,0 1.0078125,0.1875 1.3828125,0.5625 0.3867188,0.363281 0.5859375,0.832031 0.5859375,1.40625 0,0.550781 -0.1992187,1.019531 -0.5859375,1.40625 -0.375,0.375 -0.8378906,0.5625 -1.3828125,0.5625 -0.5625,0 -1.03125,-0.19336 -1.40625,-0.585938 -0.375,-0.404297 -0.5625,-0.867187 -0.5625,-1.382812 0,-0.902344 0.1640625,-1.746094 0.4921875,-2.53125 0.3398438,-0.796875 0.8320313,-1.5 1.4765625,-2.109375 0.6386719,-0.621094 1.359375,-1.101563 2.15625,-1.429688 0.8085938,-0.328125 1.6640625,-0.492187 2.5546875,-0.492187 1.3710938,0 2.6542965,0.292969 3.8437505,0.867187 1.183593,0.580078 2.121093,1.400391 2.8125,2.460938 0.685546,1.066406 1.03125,2.308594 1.03125,3.726562 0,1.03125 -0.228516,2.015625 -0.679687,2.953125 -0.457032,0.9375 -1.042969,1.798828 -1.757813,2.578125 -0.720703,0.767578 -1.634766,1.6347659 -2.742187,2.6015628 -1.1132822,0.9726562 -1.8457041,1.6171875 -2.203126,1.9453125 l -4.078125,3.9140625 h 3.46875 c 1.6992188,0 3.123047,-0.00586 4.265626,-0.023437 1.136718,-0.029297 1.740234,-0.076172 1.804687,-0.140625 0.28125,-0.3105469 0.568358,-1.4179688 0.867188,-3.328125 h 1.054687 l -1.007812,6.42187499 z m 0,0"
       style="fill:#000000;fill-opacity:1;fill-rule:nonzero;stroke:none"
       aria-label="2"
       transform="matrix(0.66666667,0,0,0.66666667,322.82571,70.407149)" />
    <path
       id="path81"
       d="m 360.99667,131.43962 h 59.96662"
       style="fill:none;stroke:#377eb8;stroke-width:4;stroke-linecap:butt;stroke-linejoin:bevel;stroke-miterlimit:1;stroke-dasharray:16, 16;stroke-dashoffset:0;stroke-opacity:1"
       transform="matrix(0.66666667,0,0,0.66666667,-14.481557,-22.979167)" />
    <path
       id="path82"
       d="M 1.1019135,0.00287034 V -1.2627547 c 2.484375,0 3.7265625,-0.3808593 3.7265625,-1.1484375 V -22.192442 c 0,-0.75 -1.2421875,-1.125 -3.7265625,-1.125 v -1.265625 H 12.773788 v 1.265625 c -3.0644527,0 -4.5937495,0.375 -4.5937495,1.125 v 19.7812498 c 0,0.515625 0.140625,0.8378907 0.421875,0.9609375 0.2929687,0.1289063 0.7617187,0.1875 1.4062495,0.1875 h 2.765625 c 1.792969,0 3.175782,-0.328125 4.148438,-0.984375 0.984375,-0.65625 1.669922,-1.546875 2.0625,-2.671875 0.404297,-1.1367187 0.714844,-2.6484375 0.9375,-4.5234375 h 1.03125 l -1.007813,9.44531254 z m 0,0"
       style="fill:#000000;fill-opacity:1;fill-rule:nonzero;stroke:none"
       aria-label="L"
       transform="matrix(0.66666667,0,0,0.66666667,411.89039,41.154336)" />
    <path
       id="path83"
       d="M 1.1018605,0.00287034 V -1.2627547 c 0.8261718,0 1.5,-0.058594 2.015625,-0.1875 0.5273437,-0.140625 0.796875,-0.4570312 0.796875,-0.9609375 v -9.8203128 c 0,-0.919922 -0.1816407,-1.482422 -0.5390625,-1.6875 -0.3457032,-0.216797 -1.0488282,-0.328125 -2.109375,-0.328125 v -1.265625 l 5.1796875,-0.398437 v 13.4999998 c 0,0.5039063 0.2226562,0.8203125 0.6796875,0.9609375 0.46875,0.1289063 1.0839843,0.1875 1.8515625,0.1875 V 0.00287034 Z M 2.6487355,-22.098692 c 0,-0.527344 0.1933593,-0.990235 0.5859375,-1.382813 0.4042968,-0.404297 0.8671875,-0.609375 1.3828125,-0.609375 0.328125,0 0.6445312,0.09375 0.9609375,0.28125 0.328125,0.175782 0.5742187,0.416016 0.75,0.726563 0.1699218,0.316406 0.2578125,0.644531 0.2578125,0.984375 0,0.515625 -0.2050782,0.978515 -0.609375,1.382812 -0.3925782,0.392578 -0.84375,0.585938 -1.359375,0.585938 -0.515625,0 -0.9785157,-0.19336 -1.3828125,-0.585938 -0.3925782,-0.404297 -0.5859375,-0.867187 -0.5859375,-1.382812 z m 0,0"
       style="fill:#000000;fill-opacity:1;fill-rule:nonzero;stroke:none"
       aria-label="i"
       transform="matrix(0.66666667,0,0,0.66666667,426.89043,41.154336)" />
    <path
       id="path84"
       d="M 1.0803451,0.00287034 V -1.2627547 c 0.8085937,0 1.4824219,-0.058594 2.015625,-0.1875 0.5273437,-0.140625 0.796875,-0.4570312 0.796875,-0.9609375 v -9.8203128 c 0,-0.638672 -0.1054688,-1.101562 -0.3046875,-1.382812 -0.1875,-0.292969 -0.4628906,-0.47461 -0.8203125,-0.539063 -0.3632813,-0.05859 -0.9257813,-0.09375 -1.6875,-0.09375 v -1.265625 l 5.2265625,-0.398437 v 3.515625 c 0.46875,-1.03125 1.171875,-1.875 2.109375,-2.53125 0.9492187,-0.65625 1.9804684,-0.984375 3.0937504,-0.984375 1.669921,0 2.917968,0.398437 3.75,1.195312 0.84375,0.796875 1.265625,2.015625 1.265625,3.65625 v 8.6484378 c 0,0.5039063 0.263671,0.8203125 0.796875,0.9609375 0.527343,0.1289063 1.201171,0.1875 2.015625,0.1875 v 1.26562504 h -8.25 V -1.2627547 c 0.826171,0 1.5,-0.058594 2.015625,-0.1875 0.527343,-0.140625 0.796875,-0.4570312 0.796875,-0.9609375 v -8.5312498 c 0,-1.171875 -0.175782,-2.132813 -0.515625,-2.882813 -0.328125,-0.761718 -1.025391,-1.148437 -2.085938,-1.148437 -1.3945312,0 -2.5429687,0.55664 -3.4453124,1.664062 -0.890625,1.113282 -1.3359375,2.378907 -1.3359375,3.7968753 v 7.1015625 c 0,0.5039063 0.2636719,0.8203125 0.796875,0.9609375 0.5273437,0.1289063 1.2011719,0.1875 2.015625,0.1875 v 1.26562504 z m 0,0"
       style="fill:#000000;fill-opacity:1;fill-rule:nonzero;stroke:none"
       aria-label="n"
       transform="matrix(0.66666667,0,0,0.66666667,433.55711,41.154336)" />
    <path
       id="path85"
       d="m 8.9767685,0.40130784 c -1.4707032,0 -2.8242188,-0.38671875 -4.0546875,-1.1484375 C 3.703331,-1.5088484 2.7423935,-2.534239 2.0392685,-3.8174422 c -0.6914063,-1.2773437 -1.03125,-2.6367187 -1.03125,-4.078125 0,-1.40625 0.3164062,-2.7421878 0.9609375,-4.0078128 0.6386718,-1.265625 1.5292968,-2.285156 2.671875,-3.070312 1.1367187,-0.779297 2.4140625,-1.171875 3.8203125,-1.171875 1.0898437,0 2.0449215,0.1875 2.8593745,0.5625 0.826172,0.375 1.5,0.890625 2.015625,1.546875 0.527344,0.65625 0.925782,1.429687 1.195313,2.320312 0.28125,0.890625 0.421875,1.869141 0.421875,2.9296878 0,0.3164063 -0.128906,0.46875 -0.375,0.46875 H 4.1486435 v 0.3984375 c 0,1.9863282 0.3984375,3.6972657 1.1953125,5.1328125 0.8085937,1.4238282 2.1210937,2.13281254 3.9375,2.13281254 0.732422,0 1.412109,-0.1640625 2.039062,-0.49218754 0.638672,-0.328125 1.183594,-0.7792968 1.640625,-1.359375 0.46875,-0.5917968 0.779297,-1.2246093 0.9375,-1.8984375 0.0293,-0.076172 0.07617,-0.1464843 0.140625,-0.2109375 0.05859,-0.058594 0.128907,-0.09375 0.210938,-0.09375 h 0.328125 c 0.246094,0 0.375,0.1523438 0.375,0.4453125 -0.345703,1.359375 -1.078125,2.4785157 -2.203125,3.35156254 -1.125,0.87890625 -2.384766,1.3125 -3.7734375,1.3125 z m -4.78125,-9.60937504 h 8.2031245 c 0,-0.9023438 -0.128906,-1.8164058 -0.375,-2.7421878 -0.251953,-0.919922 -0.673828,-1.6875 -1.265625,-2.296875 -0.580078,-0.621093 -1.3476558,-0.9375 -2.2968745,-0.9375 -1.359375,0 -2.4140625,0.644532 -3.1640625,1.921875 -0.7382813,1.265625 -1.1015625,2.619141 -1.1015625,4.0546878 z m 0,0"
       style="fill:#000000;fill-opacity:1;fill-rule:nonzero;stroke:none"
       aria-label="e"
       transform="matrix(0.66666667,0,0,0.66666667,446.89049,41.154336)" />
    <path
       id="path86"
       d="m 3.4240571,-2.7861922 c 0.5625,0.8320313 1.3183594,1.4472657 2.2734375,1.85156254 0.9492187,0.39257813 1.9746094,0.5859375 3.0703125,0.5859375 1.3886719,0 2.3730469,-0.59179687 2.9531249,-1.78125004 0.591797,-1.1835937 0.890625,-2.5371093 0.890625,-4.0546875 0,-0.6855468 -0.06445,-1.3652343 -0.1875,-2.0390625 -0.128906,-0.6855468 -0.339844,-1.3183593 -0.632812,-1.8984378 -0.28125,-0.591797 -0.679688,-1.060547 -1.195313,-1.40625 -0.515625,-0.357422 -1.142578,-0.539062 -1.8749999,-0.539062 h -2.390625 c -0.2050781,0 -0.3046875,-0.105469 -0.3046875,-0.328125 v -0.304688 c 0,-0.1875 0.099609,-0.28125 0.3046875,-0.28125 l 1.9921875,-0.164062 c 0.84375,0 1.5351562,-0.310547 2.0859374,-0.9375 0.5625,-0.638672 0.966797,-1.41211 1.21875,-2.320313 0.263672,-0.902343 0.398438,-1.769531 0.398438,-2.601562 0,-1.136719 -0.275391,-2.074219 -0.820313,-2.8125 -0.533203,-0.75 -1.3476562,-1.125 -2.4374999,-1.125 -0.9257813,0 -1.7988281,0.175781 -2.625,0.515625 -0.8320313,0.345703 -1.4941406,0.867187 -1.9921875,1.570312 0.046875,0 0.082031,0 0.1171875,0 0.046875,-0.01172 0.09375,-0.02344 0.140625,-0.02344 0.5273437,0 0.9726562,0.1875 1.3359375,0.5625 0.375,0.375 0.5625,0.832031 0.5625,1.359375 0,0.515625 -0.1875,0.960937 -0.5625,1.335937 -0.3632813,0.375 -0.8085938,0.5625 -1.3359375,0.5625 -0.5332031,0 -0.984375,-0.1875 -1.359375,-0.5625 -0.375,-0.375 -0.5625,-0.820312 -0.5625,-1.335937 0,-1.03125 0.3046875,-1.927735 0.9140625,-2.695313 0.6210937,-0.761718 1.4296875,-1.341797 2.4140625,-1.734375 0.984375,-0.386718 1.96875,-0.585937 2.953125,-0.585937 0.7148437,0 1.4824219,0.111328 2.2968749,0.328125 0.808594,0.222656 1.546875,0.533203 2.203125,0.9375 0.65625,0.392578 1.183594,0.908203 1.59375,1.546875 0.421875,0.626953 0.632813,1.347656 0.632813,2.15625 0,1.019531 -0.228516,1.957031 -0.679688,2.8125 -0.457031,0.84375 -1.072266,1.582031 -1.851562,2.203125 -0.785157,0.626953 -1.640625,1.089844 -2.578125,1.382812 1.03125,0.205078 2.015625,0.603516 2.953125,1.195313 0.9375,0.580078 1.6875,1.330078 2.25,2.2499998 0.574218,0.9082032 0.867187,1.8867188 0.867187,2.9296875 0,1.3300782 -0.369141,2.53125 -1.101562,3.609375 -0.720704,1.0664063 -1.675782,1.89843754 -2.859375,2.50781254 -1.171875,0.609375 -2.414063,0.9140625 -3.7265629,0.9140625 -1.125,0 -2.2617188,-0.22265625 -3.3984375,-0.65625 -1.125,-0.421875 -2.0507813,-1.06054687 -2.765625,-1.92187504 -0.7207031,-0.8554687 -1.078125,-1.8808593 -1.078125,-3.0703125 0,-0.5917968 0.1933594,-1.0839843 0.5859375,-1.4765625 0.4042969,-0.4042968 0.9023437,-0.609375 1.5,-0.609375 0.3867187,0 0.7382812,0.09375 1.0546875,0.28125 0.328125,0.1757813 0.5742187,0.421875 0.75,0.75 0.1875,0.328125 0.28125,0.6796875 0.28125,1.0546875 0,0.5800782 -0.2050781,1.0722657 -0.609375,1.4765625 -0.4101563,0.3925782 -0.9023438,0.5859375 -1.4765625,0.5859375 z m 0,0"
       style="fill:#000000;fill-opacity:1;fill-rule:nonzero;stroke:none"
       aria-label="3"
       transform="matrix(0.66666667,0,0,0.66666667,465.55714,41.154336)" />
    <path
       id="path87"
       d="m 575.09381,87.560387 h 59.96661"
       style="fill:none;stroke:#4daf4a;stroke-width:4;stroke-linecap:butt;stroke-linejoin:bevel;stroke-miterlimit:1;stroke-dasharray:4, 4;stroke-dashoffset:0;stroke-opacity:1"
       transform="matrix(0.66666667,0,0,0.66666667,-14.481557,-22.979167)" />
    <path
       id="path88"
       d="M 1.1019135,-0.00134871 V -1.2669737 c 2.484375,0 3.7265625,-0.3808594 3.7265625,-1.1484375 V -22.196661 c 0,-0.75 -1.2421875,-1.125 -3.7265625,-1.125 v -1.265625 H 12.773788 v 1.265625 c -3.0644527,0 -4.5937495,0.375 -4.5937495,1.125 v 19.7812498 c 0,0.515625 0.140625,0.8378906 0.421875,0.9609375 0.2929687,0.1289062 0.7617187,0.1875 1.4062495,0.1875 h 2.765625 c 1.792969,0 3.175782,-0.328125 4.148438,-0.984375 0.984375,-0.65625 1.669922,-1.546875 2.0625,-2.671875 0.404297,-1.1367188 0.714844,-2.6484375 0.9375,-4.5234375 h 1.03125 l -1.007813,9.44531249 z m 0,0"
       style="fill:#000000;fill-opacity:1;fill-rule:nonzero;stroke:none"
       aria-label="L"
       transform="matrix(0.66666667,0,0,0.66666667,411.89039,70.407149)" />
    <path
       id="path89"
       d="M 1.1018605,-0.00134871 V -1.2669737 c 0.8261718,0 1.5,-0.058594 2.015625,-0.1875 0.5273437,-0.140625 0.796875,-0.4570313 0.796875,-0.9609375 v -9.8203128 c 0,-0.919922 -0.1816407,-1.482422 -0.5390625,-1.6875 -0.3457032,-0.216797 -1.0488282,-0.328125 -2.109375,-0.328125 v -1.265625 l 5.1796875,-0.398437 v 13.4999998 c 0,0.5039062 0.2226562,0.8203125 0.6796875,0.9609375 0.46875,0.1289062 1.0839843,0.1875 1.8515625,0.1875 v 1.26562499 z M 2.6487355,-22.102911 c 0,-0.527344 0.1933593,-0.990235 0.5859375,-1.382813 0.4042968,-0.404297 0.8671875,-0.609375 1.3828125,-0.609375 0.328125,0 0.6445312,0.09375 0.9609375,0.28125 0.328125,0.175782 0.5742187,0.416016 0.75,0.726563 0.1699218,0.316406 0.2578125,0.644531 0.2578125,0.984375 0,0.515625 -0.2050782,0.978515 -0.609375,1.382812 -0.3925782,0.392578 -0.84375,0.585938 -1.359375,0.585938 -0.515625,0 -0.9785157,-0.19336 -1.3828125,-0.585938 -0.3925782,-0.404297 -0.5859375,-0.867187 -0.5859375,-1.382812 z m 0,0"
       style="fill:#000000;fill-opacity:1;fill-rule:nonzero;stroke:none"
       aria-label="i"
       transform="matrix(0.66666667,0,0,0.66666667,426.89043,70.407149)" />
    <path
       id="path90"
       d="M 1.0803451,-0.00134871 V -1.2669737 c 0.8085937,0 1.4824219,-0.058594 2.015625,-0.1875 0.5273437,-0.140625 0.796875,-0.4570313 0.796875,-0.9609375 v -9.8203128 c 0,-0.638672 -0.1054688,-1.101562 -0.3046875,-1.382812 -0.1875,-0.292969 -0.4628906,-0.47461 -0.8203125,-0.539063 -0.3632813,-0.05859 -0.9257813,-0.09375 -1.6875,-0.09375 v -1.265625 l 5.2265625,-0.398437 v 3.515625 c 0.46875,-1.03125 1.171875,-1.875 2.109375,-2.53125 0.9492187,-0.65625 1.9804684,-0.984375 3.0937504,-0.984375 1.669921,0 2.917968,0.398437 3.75,1.195312 0.84375,0.796875 1.265625,2.015625 1.265625,3.65625 v 8.6484378 c 0,0.5039062 0.263671,0.8203125 0.796875,0.9609375 0.527343,0.1289062 1.201171,0.1875 2.015625,0.1875 v 1.26562499 h -8.25 V -1.2669737 c 0.826171,0 1.5,-0.058594 2.015625,-0.1875 0.527343,-0.140625 0.796875,-0.4570313 0.796875,-0.9609375 v -8.5312498 c 0,-1.171875 -0.175782,-2.132813 -0.515625,-2.882813 -0.328125,-0.761718 -1.025391,-1.148437 -2.085938,-1.148437 -1.3945312,0 -2.5429687,0.55664 -3.4453124,1.664062 -0.890625,1.113282 -1.3359375,2.378907 -1.3359375,3.7968753 v 7.1015625 c 0,0.5039062 0.2636719,0.8203125 0.796875,0.9609375 0.5273437,0.1289062 1.2011719,0.1875 2.015625,0.1875 v 1.26562499 z m 0,0"
       style="fill:#000000;fill-opacity:1;fill-rule:nonzero;stroke:none"
       aria-label="n"
       transform="matrix(0.66666667,0,0,0.66666667,433.55711,70.407149)" />
    <path
       id="path91"
       d="m 8.9767685,0.39708879 c -1.4707032,0 -2.8242188,-0.38671875 -4.0546875,-1.1484375 C 3.703331,-1.5130675 2.7423935,-2.5384581 2.0392685,-3.8216612 1.3478622,-5.099005 1.0080185,-6.45838 1.0080185,-7.8997862 c 0,-1.40625 0.3164062,-2.7421878 0.9609375,-4.0078128 0.6386718,-1.265625 1.5292968,-2.285156 2.671875,-3.070312 1.1367187,-0.779297 2.4140625,-1.171875 3.8203125,-1.171875 1.0898437,0 2.0449215,0.1875 2.8593745,0.5625 0.826172,0.375 1.5,0.890625 2.015625,1.546875 0.527344,0.65625 0.925782,1.429687 1.195313,2.320312 0.28125,0.890625 0.421875,1.8691409 0.421875,2.9296878 0,0.3164062 -0.128906,0.46875 -0.375,0.46875 H 4.1486435 v 0.3984375 c 0,1.9863281 0.3984375,3.6972656 1.1953125,5.1328125 0.8085937,1.4238281 2.1210937,2.13281249 3.9375,2.13281249 0.732422,0 1.412109,-0.1640625 2.039062,-0.49218749 0.638672,-0.328125 1.183594,-0.7792969 1.640625,-1.359375 0.46875,-0.5917969 0.779297,-1.2246094 0.9375,-1.8984375 0.0293,-0.076172 0.07617,-0.1464844 0.140625,-0.2109375 0.05859,-0.058594 0.128907,-0.09375 0.210938,-0.09375 h 0.328125 c 0.246094,0 0.375,0.1523437 0.375,0.4453125 -0.345703,1.359375 -1.078125,2.4785156 -2.203125,3.35156249 -1.125,0.87890625 -2.384766,1.3125 -3.7734375,1.3125 z m -4.78125,-9.60937499 h 8.2031245 c 0,-0.9023438 -0.128906,-1.8164058 -0.375,-2.7421878 -0.251953,-0.919922 -0.673828,-1.6875 -1.265625,-2.296875 -0.580078,-0.621093 -1.3476558,-0.9375 -2.2968745,-0.9375 -1.359375,0 -2.4140625,0.644532 -3.1640625,1.921875 -0.7382813,1.265625 -1.1015625,2.619141 -1.1015625,4.0546878 z m 0,0"
       style="fill:#000000;fill-opacity:1;fill-rule:nonzero;stroke:none"
       aria-label="e"
       transform="matrix(0.66666667,0,0,0.66666667,446.89049,70.407149)" />
    <path
       id="path92"
       d="m 1.0099946,-5.9544737 v -1.265625 L 12.142807,-23.813849 c 0.07617,-0.105468 0.193359,-0.164062 0.351563,-0.164062 h 0.539062 c 0.263672,0 0.398438,0.134765 0.398438,0.398437 v 16.3593753 h 3.539062 v 1.265625 H 13.43187 v 3.5390625 c 0,0.5039062 0.351562,0.8203125 1.054687,0.9609375 0.703125,0.1289062 1.511719,0.1875 2.4375,0.1875 v 1.26562499 H 7.0099946 V -1.2669737 c 0.9375,0 1.7578125,-0.058594 2.4609375,-0.1875 0.7031249,-0.140625 1.0546879,-0.4570313 1.0546879,-0.9609375 v -3.5390625 z m 1.1953125,-1.265625 H 10.736557 V -19.946661 Z m 0,0"
       style="fill:#000000;fill-opacity:1;fill-rule:nonzero;stroke:none"
       aria-label="4"
       transform="matrix(0.66666667,0,0,0.66666667,465.55714,70.407149)" />
    <path
       id="path93"
       d="m 575.09381,131.43962 h 59.96661"
       style="fill:none;stroke:#984ea3;stroke-width:4;stroke-linecap:butt;stroke-linejoin:round;stroke-miterlimit:10;stroke-dasharray:none;stroke-opacity:1"
       transform="matrix(0.66666667,0,0,0.66666667,-14.481557,-22.979167)" />
    <path
       id="path94"
       d="m 0,-6 c 3.3137085,0 6,2.6862915 6,6 V 0 C 6,3.3137085 3.3137085,6 0,6 -3.3137085,6 -6,3.3137085 -6,0 c 0,-3.3137085 2.6862915,-6 6,-6 z m 0,-4 c -5.5228475,0 -10,4.4771525 -10,10 0,5.5228475 4.4771525,10 10,10 C 5.5228475,10 10,5.5228475 10,0 V 0 C 10,-5.5228475 5.5228475,-10 0,-10 Z"
       style="fill:#984ea3;fill-opacity:1;fill-rule:nonzero;stroke:none"
       transform="matrix(0.66666667,0,0,0.66666667,388.90321,64.647247)" />
    <path
       id="path95"
       d="M 355,156 V 63 h 389 v 93 z"
       style="fill:none;stroke:#262626;stroke-width:3;stroke-linecap:butt;stroke-linejoin:miter;stroke-miterlimit:10;stroke-dasharray:none;stroke-opacity:1"
       transform="matrix(0.66666667,0,0,0.66666667,-14.481557,-22.979167)" />
  </g>
</svg>
